<svg width="753" height="685" viewBox="0 0 753 685" fill="none" xmlns="http://www.w3.org/2000/svg">
<path d="M623.856 685C634.191 685 642.635 676.294 642.761 665.569C643.517 611.819 647.677 532.455 550.63 510.5C471.984 492.71 518.617 346.978 306.879 356.441C154.881 363.255 195.338 496.874 77.1177 507.977C-1.52791 515.421 -2.15808 619.137 0.866747 666.578C1.49692 676.925 9.81521 685 19.7719 685H623.856Z" fill="#DDEFF7" fill-opacity="0.3"/>
<path opacity="0.45" d="M645.409 490.818C554.113 471.035 608.21 308.987 362.44 319.446C320.449 321.21 291.194 331.039 269 345.026C276.44 344.017 284.384 343.387 292.833 343.009C538.602 332.551 484.505 494.599 575.802 514.382C687.401 538.576 683.87 625.144 682.861 684.999H730.401C742.38 684.999 752.216 675.422 752.468 663.325C753.351 603.471 758.269 515.138 645.409 490.818Z" fill="#08C2DA"/>
<path opacity="0.4" d="M208 0H206V253H208V0Z" fill="#D0D0D0"/>
<path opacity="0.4" d="M486 0H484V291H486V0Z" fill="#D0D0D0"/>
<path d="M486.318 272.464L197.674 238.819C185.317 237.433 174.22 246.254 172.707 258.477L151.143 442.954C149.756 455.303 158.583 466.392 170.815 467.904L459.585 501.423C471.943 502.809 483.039 493.988 484.553 481.765L506.116 297.287C507.503 285.065 498.676 273.85 486.318 272.464Z" fill="#DDEFF7"/>
<path d="M503.971 315.558L506.114 297.287C507.501 284.938 498.674 273.849 486.443 272.337L197.799 238.692C185.441 237.306 174.344 246.127 172.831 258.35L170.688 276.621L503.971 315.558Z" fill="#0072BF"/>
<path d="M217.345 388.392L253.914 324.002C256.31 319.843 260.85 317.575 265.515 318.079C271.947 318.835 276.612 324.758 275.856 331.184L268.29 396.331H268.668C273.208 396.835 276.36 400.867 275.856 405.404C275.351 409.94 271.316 413.09 266.776 412.586H266.398L265.011 424.431C264.507 429.219 260.093 432.748 255.175 432.244C250.383 431.74 246.853 427.329 247.357 422.415L248.744 410.57L222.389 407.546C217.849 407.042 214.697 403.009 215.201 398.473L215.958 392.551C216.21 391.039 216.715 389.652 217.345 388.392ZM250.888 393.181L255.553 352.732C255.553 352.48 255.175 352.354 255.049 352.606L233.486 390.66C233.108 391.291 233.486 392.173 234.243 392.299L249.627 394.063C250.257 394.189 250.888 393.811 250.888 393.181Z" fill="#08C2DA"/>
<path d="M378.88 407.168L415.449 342.777C417.845 338.619 422.385 336.351 427.051 336.855C433.482 337.611 438.147 343.533 437.391 349.96L429.825 415.106H430.203C434.743 415.61 437.895 419.643 437.391 424.179C436.886 428.715 432.851 431.866 428.312 431.362H427.933L426.546 443.206C426.042 447.995 421.628 451.523 416.71 451.019C411.919 450.515 408.388 446.105 408.892 441.19L410.279 429.345L383.924 426.321C379.385 425.817 376.232 421.785 376.737 417.248L377.493 411.326C377.619 409.814 378.124 408.428 378.88 407.168ZM412.423 412.082L417.089 371.633C417.089 371.381 416.71 371.255 416.584 371.507L395.021 409.562C394.643 410.192 395.021 411.074 395.778 411.2L411.162 412.964C411.792 413.09 412.297 412.586 412.423 412.082Z" fill="#08C2DA"/>
<path d="M306.245 350.463C308.389 332.317 319.233 322.993 336.761 325.009C354.289 327.025 362.738 338.618 360.594 356.763L353.659 415.988C351.515 434.133 340.67 443.458 323.142 441.441C305.614 439.425 297.166 427.832 299.309 409.687L306.245 350.463ZM317.09 412.837C316.081 421.028 319.359 424.43 325.034 425.186C330.708 425.816 334.617 423.17 335.626 415.106L342.814 353.613C343.823 345.548 340.544 342.02 334.87 341.264C329.195 340.634 325.286 343.28 324.277 351.345L317.09 412.837Z" fill="#08C2DA"/>
<path d="M204.736 264.272C204.357 267.549 201.331 269.943 198.052 269.565C194.774 269.187 192.378 266.163 192.756 262.886C193.134 259.61 196.161 257.216 199.439 257.594C202.718 257.972 205.114 260.87 204.736 264.272Z" fill="white"/>
<path d="M233.613 267.55C233.234 270.826 230.208 273.22 226.929 272.842C223.651 272.464 221.255 269.44 221.633 266.164C222.011 262.887 225.038 260.493 228.316 260.871C231.595 261.249 233.991 264.274 233.613 267.55Z" fill="#08C2DA"/>
<path d="M263.626 271.077C263.248 274.353 260.222 276.748 256.943 276.37C253.664 275.992 251.268 272.967 251.647 269.691C252.025 266.415 255.051 264.021 258.33 264.399C261.609 264.777 264.005 267.801 263.626 271.077Z" fill="#E9B20D"/>
<path d="M185.838 645.054C185.838 645.054 181.929 641.4 184.577 627.539C187.225 613.678 193.909 600.321 190.63 585.326C187.352 570.33 161.753 532.402 161.627 529.881C161.501 527.361 153.683 573.985 166.923 592.382C180.164 610.779 181.803 617.08 181.173 626.783C180.542 636.485 181.299 644.172 182.812 646.44L185.838 645.054Z" fill="#08C2DA"/>
<path d="M183.442 617.206C181.929 623.381 180.92 638.88 183.442 642.66C183.694 643.038 183.947 642.786 184.451 642.156C183.695 639.636 183.19 635.1 184.577 627.665C187.225 613.804 193.909 600.447 190.63 585.452C187.351 570.457 161.753 532.528 161.627 530.008C161.627 530.008 165.536 561.636 178.524 583.31C187.73 598.809 184.956 611.032 183.442 617.206Z" fill="#0072BF"/>
<path d="M190.502 644.172C190.502 644.172 182.936 625.397 195.798 609.142C208.534 592.887 228.962 571.969 229.341 563.652C229.341 563.652 234.637 602.967 217.992 614.056C201.346 625.145 189.745 626.909 192.645 644.046L190.502 644.172Z" fill="#08C2DA"/>
<path d="M208.407 606.117C189.87 619.6 188.357 635.1 191.257 642.282C191.509 642.786 191.888 643.164 192.518 643.416C189.996 626.909 201.597 625.019 217.99 614.056C234.636 602.967 229.339 563.652 229.339 563.652C229.339 563.652 226.943 592.634 208.407 606.117Z" fill="#0072BF"/>
<path d="M178.145 644.551C178.145 644.551 180.541 634.597 179.28 623.886C178.019 613.175 166.796 607.126 156.33 595.786C150.908 589.989 149.394 559.117 152.673 556.219C152.673 556.219 134.136 578.648 137.037 595.03C139.937 611.411 170.075 622.122 172.975 630.06C175.749 637.999 175.497 644.677 175.497 644.677L178.145 644.551Z" fill="#08C2DA"/>
<path d="M146.367 564.911C140.188 581.545 146.493 601.58 166.921 614.055C181.927 623.254 177.136 642.281 177.136 642.281L179.531 634.721C179.784 631.444 179.784 627.664 179.279 623.758C178.018 613.047 166.795 606.999 156.329 595.658C151.159 589.987 149.393 561.131 152.294 556.469C151.411 557.603 149.015 560.753 146.367 564.911Z" fill="#0072BF"/>
<path d="M152.293 556.597C152.545 556.345 152.671 556.219 152.671 556.219C152.419 556.219 152.419 556.345 152.293 556.597Z" fill="#0072BF"/>
<path d="M194.412 643.29C194.412 643.29 198.7 627.161 209.544 625.019C220.263 622.877 232.621 607 233.251 603.85C233.251 603.85 231.36 633.84 194.412 643.29Z" fill="#08C2DA"/>
<path d="M208.914 630.312C202.357 633.588 199.583 637.998 198.574 642.03C231.486 631.446 233.252 603.85 233.252 603.85C233.126 604.48 232.495 605.614 231.612 607C228.334 612.67 220.516 624.515 208.914 630.312Z" fill="#0072BF"/>
<path d="M217.615 637.367H161.5L168.183 679.328C168.688 682.479 171.462 684.873 174.614 684.873H204.5C207.779 684.873 210.427 682.479 210.931 679.328L217.615 637.367Z" fill="#E9B20D"/>
<path d="M216.48 644.298L217.615 637.367H161.5L162.509 644.298H216.48Z" fill="#E79D56"/>
<path d="M203.995 637.367L197.312 679.328C196.808 682.479 194.033 684.873 190.881 684.873H204.5C207.778 684.873 210.426 682.479 210.931 679.328L217.614 637.367H203.995Z" fill="#E79D56"/>
<path d="M506.256 562.645H252.416V614.182H506.256V562.645Z" fill="#E9B20D"/>
<path opacity="0.29" d="M506.256 562.645H252.416V575.119H506.256V562.645Z" fill="#E9B20D"/>
<path d="M274.484 562.645H297.686L291.507 575.119H268.305L274.484 562.645Z" fill="#E9B20D"/>
<path d="M326.689 562.645H349.891L343.712 575.119H320.51L326.689 562.645Z" fill="#E9B20D"/>
<path d="M378.896 562.645H402.098L395.919 575.119H372.717L378.896 562.645Z" fill="#E9B20D"/>
<path d="M431.101 562.645H454.303L447.998 575.119H424.922L431.101 562.645Z" fill="#E9B20D"/>
<path d="M506.256 562.645V563.023L500.203 575.119H477.127L483.306 562.645H506.256Z" fill="#E9B20D"/>
<path d="M301.975 614.182H284.068V684.747H301.975V614.182Z" fill="#08C2DA"/>
<path d="M301.848 614.182H297.812V684.747H301.848V614.182Z" fill="#0072BF"/>
<path d="M476.117 614.182H458.211V684.747H476.117V614.182Z" fill="#08C2DA"/>
<path d="M476.117 614.182H470.82V684.747H476.117V614.182Z" fill="#0072BF"/>
<path d="M301.975 614.182H284.068V623.002H301.975V614.182Z" fill="#0072BF"/>
<path d="M476.117 614.182H458.211V623.002H476.117V614.182Z" fill="#0072BF"/>
<path d="M301.975 554.58H284.068V562.645H301.975V554.58Z" fill="#08C2DA"/>
<path d="M301.848 554.58H297.812V562.645H301.848V554.58Z" fill="#0072BF"/>
<path d="M476.117 554.58H458.211V562.645H476.117V554.58Z" fill="#08C2DA"/>
<path d="M476.117 554.58H470.82V562.645H476.117V554.58Z" fill="#0072BF"/>
<path d="M301.975 561.51H284.068V562.518H301.975V561.51Z" fill="#0072BF"/>
<path d="M476.117 561.51H458.211V562.518H476.117V561.51Z" fill="#0072BF"/>
<path d="M297.686 562.645L272.088 614.182H252.416V607.126L274.484 562.645H297.686Z" fill="#0072BF"/>
<path d="M326.688 562.645L301.09 614.182H324.292L349.891 562.645H326.688Z" fill="#0072BF"/>
<path d="M402.098 562.645L376.499 614.182H353.297L378.895 562.645H402.098Z" fill="#0072BF"/>
<path d="M454.303 562.645L428.704 614.182H405.502L431.1 562.645H454.303Z" fill="#0072BF"/>
<path d="M483.307 562.645L457.709 614.182H480.911L506.258 563.023L483.307 562.645Z" fill="#0072BF"/>
<path d="M297.686 562.645L291.507 575.119H268.305L274.484 562.645H297.686Z" fill="#0072BF"/>
<path d="M349.893 562.645L343.714 575.119H320.512L326.691 562.645H349.893Z" fill="#0072BF"/>
<path d="M402.098 562.645L395.919 575.119H372.717L378.896 562.645H402.098Z" fill="#0072BF"/>
<path d="M454.303 562.645L447.998 575.119H424.922L431.101 562.645H454.303Z" fill="#0072BF"/>
<path d="M506.256 563.023L500.203 575.119H477.127L483.306 562.645L506.256 563.023Z" fill="#0072BF"/>
<path opacity="0.55" d="M501.969 584.947H259.479V610.779H501.969V584.947Z" fill="url(#paint0_linear)"/>
<path d="M295.06 559.165C303.79 557.745 309.715 549.523 308.294 540.799C306.874 532.076 298.646 526.155 289.916 527.574C281.186 528.994 275.261 537.216 276.681 545.94C278.102 554.663 286.33 560.584 295.06 559.165Z" fill="#E9B20D"/>
<path d="M299.704 543.366C299.704 539.334 296.425 536.184 292.516 536.184C288.607 536.184 285.328 539.46 285.328 543.366C285.328 547.398 288.607 550.549 292.516 550.549C296.425 550.549 299.704 547.398 299.704 543.366Z" fill="#0072BF"/>
<path d="M469.583 559.172C478.313 557.753 484.238 549.531 482.818 540.807C481.397 532.084 473.169 526.163 464.439 527.582C455.71 529.002 449.784 537.224 451.205 545.947C452.625 554.671 460.854 560.592 469.583 559.172Z" fill="#E9B20D"/>
<path d="M474.227 543.366C474.227 539.334 470.948 536.184 467.039 536.184C463.13 536.184 459.852 539.46 459.852 543.366C459.852 547.398 463.13 550.549 467.039 550.549C470.948 550.549 474.227 547.398 474.227 543.366Z" fill="#0072BF"/>
<path d="M602.471 679.33H521.641L533.998 649.34L538.916 637.243L540.303 633.967L542.573 628.549L543.078 627.415L547.996 615.318L548.878 613.176L557.705 591.754C559.345 587.848 564.767 587.848 566.406 591.754L575.233 613.176L576.116 615.318L581.034 627.415L581.538 628.549L583.808 633.967L585.195 637.243L590.113 649.34L602.471 679.33Z" fill="#E9B20D"/>
<path opacity="0.29" d="M526.937 666.477L521.641 679.329H602.471L597.175 666.477H526.937Z" fill="#E9B20D"/>
<path d="M607.769 671.645H515.211V684.75H607.769V671.645Z" fill="#08C2DA"/>
<path d="M607.769 671.645H587.719V684.75H607.769V671.645Z" fill="#0072BF"/>
<path opacity="0.29" d="M599.319 671.644H587.843L578.638 649.34L573.72 637.243L572.333 633.967L570.063 628.549L569.559 627.415L564.641 615.318L563.758 613.176L556.318 595.156L557.705 591.754C559.345 587.848 564.767 587.848 566.406 591.754L575.233 613.176L576.116 615.318L581.034 627.415L581.538 628.549L583.808 633.967L585.195 637.243L590.113 649.34L599.319 671.644Z" fill="#E9B20D"/>
<path d="M581.036 627.415H543.08L547.998 615.318H576.118L581.036 627.415Z" fill="#0072BF"/>
<path d="M590.115 649.341H534L538.918 637.244H585.197L590.115 649.341Z" fill="#0072BF"/>
<path d="M581.036 627.415H569.687L564.643 615.318H576.118L581.036 627.415Z" fill="#0072BF"/>
<path d="M590.114 649.341H578.639L573.721 637.244H585.196L590.114 649.341Z" fill="#0072BF"/>
<path d="M158.664 512.114C164.716 512.114 170.013 507.704 170.769 501.782C170.895 500.648 171.021 499.64 171.021 498.505C171.021 485.148 160.177 474.438 146.936 474.438C146.432 474.438 145.801 474.438 145.297 474.438C144.162 461.333 133.191 451 119.699 451C105.575 451 94.1002 462.467 94.1002 476.58C94.1002 477.21 94.1002 477.84 94.2263 478.47C90.1911 476.202 85.5254 475.068 80.6074 475.194C67.493 475.824 57.0267 486.031 56.0179 498.884C56.0179 499.01 56.0179 499.136 56.0179 499.136C55.6396 506.066 61.3141 511.988 68.2496 511.988H158.664V512.114Z" fill="#DDEFF7"/>
<path d="M684.564 429.831C703.605 429.831 704.74 401.101 685.698 400.219C685.194 400.219 684.69 400.219 684.185 400.219C680.781 400.219 677.502 400.723 674.475 401.731C671.953 386.232 658.461 374.387 642.194 374.387C625.549 374.387 611.804 386.736 609.786 402.865C605.877 400.975 601.463 399.967 596.798 399.967C594.15 399.967 591.628 400.345 589.232 400.975C572.586 405.259 575.991 430.083 593.267 430.083H684.564V429.831Z" fill="#DDEFF7"/>
<path d="M575.187 308.444C594.228 308.444 595.363 279.714 576.321 278.832C575.817 278.832 575.313 278.832 574.808 278.832C571.404 278.832 568.125 279.336 565.099 280.344C562.577 264.845 549.084 253 532.817 253C516.172 253 502.427 265.349 500.409 281.352C496.5 279.462 492.086 278.454 487.421 278.454C484.773 278.454 482.251 278.832 479.855 279.462C463.209 283.746 466.614 308.57 483.89 308.57H575.187V308.444Z" fill="#DDEFF7"/>
<path d="M151.663 341.498C176.944 341.498 197.437 321.019 197.437 295.757C197.437 270.495 176.944 250.016 151.663 250.016C126.383 250.016 105.889 270.495 105.889 295.757C105.889 321.019 126.383 341.498 151.663 341.498Z" fill="#E9B20D"/>
<path d="M152.041 250.016C164.525 258.206 172.721 272.193 172.721 288.196C172.721 313.398 152.293 333.938 126.947 333.938C126.821 333.938 126.694 333.938 126.568 333.938C133.756 338.726 142.331 341.372 151.662 341.372C176.882 341.372 197.437 320.959 197.437 295.631C197.437 270.681 177.135 250.268 152.041 250.016Z" fill="#E79D56"/>
<defs>
<linearGradient id="paint0_linear" x1="380.707" y1="629.288" x2="380.707" y2="587.733" gradientUnits="userSpaceOnUse">
<stop stop-color="white"/>
<stop offset="1" stop-color="white" stop-opacity="0"/>
</linearGradient>
</defs>
</svg>
