<svg width="156" height="36" viewBox="0 0 156 36" fill="none" xmlns="http://www.w3.org/2000/svg">
<path d="M27.8357 2.18604L0 33.3696H3.69471L27.4178 7.08028V33.4532H30.101V2.18604H27.8357Z" fill="white"/>
<path d="M61.4768 11.3144C61.1759 10.0104 60.6409 8.75239 59.8928 7.58212C59.1363 6.40349 58.1248 5.36696 56.8835 4.5018C56.0225 3.88323 55.0654 3.36914 54.0372 2.97209C52.9714 2.56249 51.8639 2.35352 50.7396 2.35352H40.7212V33.3741H43.5675V5.22486H51.2244C52.0645 5.22486 52.9422 5.45473 53.8241 5.9103C54.7478 6.38677 55.592 7.02206 56.336 7.79945C57.0883 8.58521 57.711 9.47127 58.1917 10.4326C58.6556 11.3646 58.9148 12.2883 58.9607 13.1869C59.0109 14.0186 58.9983 14.842 58.9231 15.6319C58.8521 16.3592 58.6514 17.0697 58.3254 17.7426L58.3171 17.7551C57.5062 19.498 56.4028 20.848 55.0361 21.7675C53.6653 22.6912 52.0352 23.2261 50.1962 23.3515L49.3561 23.4059V26.0431L50.1544 26.1351C50.9862 26.2312 51.8597 26.1602 52.7541 25.9261C53.5984 25.7046 54.3758 25.412 55.0738 25.0568C56.3987 24.4298 57.5522 23.5939 58.4926 22.5616C59.4247 21.5418 60.1728 20.4049 60.7203 19.1803C61.2678 17.9516 61.6106 16.6475 61.7359 15.3059C61.8655 13.9559 61.7777 12.6143 61.4768 11.3144Z" fill="white"/>
<path d="M34.3391 0V35.6933" stroke="white" stroke-width="2" stroke-miterlimit="10"/>
<path d="M89.1999 6.50333L87.06 10.5658C87.7287 10.5784 88.2428 10.5867 88.6022 10.5867C88.9324 10.5867 89.3503 10.5784 89.8519 10.5658L89.1999 6.50333ZM89.9146 5.1199L91.2813 13.2909C91.3858 13.9178 91.461 14.2856 91.507 14.3943C91.5321 14.4612 91.5822 14.5113 91.6575 14.5489C91.7327 14.5866 91.996 14.6284 92.4516 14.6701V15.0923C91.9918 15.0588 91.4652 15.0421 90.8717 15.0421C90.2949 15.0421 89.7725 15.0588 89.3086 15.0923V14.6701L89.7349 14.6576C90.0191 14.6534 90.203 14.62 90.2866 14.5573C90.3702 14.4946 90.412 14.3901 90.412 14.248C90.412 14.1101 90.3785 13.8426 90.32 13.4497L89.9522 11.1092H86.7674L86.2533 12.1081C85.7434 13.0986 85.4467 13.713 85.3547 13.9513C85.2837 14.1268 85.2502 14.2564 85.2502 14.3316C85.2502 14.4236 85.2962 14.4946 85.3923 14.5406C85.4885 14.5866 85.8103 14.6325 86.3703 14.6743V15.0965C85.7141 15.063 85.2001 15.0463 84.8406 15.0463C84.4394 15.0463 84.0089 15.063 83.5408 15.0965V14.6743C83.8835 14.6576 84.0925 14.62 84.1635 14.5698C84.2388 14.5197 84.4394 14.202 84.7654 13.6169L89.3169 5.11572H89.9146V5.1199Z" fill="white"/>
<path d="M94.3033 5.62536V5.2283C94.809 5.26174 95.1935 5.27846 95.4652 5.27846C95.7828 5.27846 96.1673 5.26174 96.6271 5.2283C96.3554 6.56575 96.0461 8.42565 95.6992 10.8163C95.5446 11.8947 95.4694 12.5759 95.4694 12.8685C95.4694 13.3324 95.624 13.7044 95.9333 13.9844C96.2426 14.2686 96.6814 14.4066 97.2498 14.4066C97.7848 14.4066 98.3198 14.2477 98.8548 13.9301C99.394 13.6125 99.8871 13.136 100.334 12.5091C100.585 10.9292 100.853 9.06512 101.137 6.92101C101.195 6.48634 101.225 6.19795 101.225 6.06003C101.225 5.90121 101.183 5.8009 101.103 5.75074C101.024 5.70059 100.694 5.65879 100.113 5.62118V5.22412C100.577 5.25756 101.17 5.27428 101.893 5.27428C102.244 5.27428 102.733 5.25756 103.365 5.22412V5.62118C102.892 5.65461 102.625 5.68387 102.562 5.71731C102.499 5.75074 102.441 5.8009 102.395 5.86777C102.349 5.93882 102.299 6.11854 102.24 6.40693L101.864 8.83942L101.379 12.0827C101.195 13.3241 101.103 14.0555 101.103 14.2812C101.103 14.4149 101.137 14.5069 101.204 14.5529C101.271 14.5988 101.467 14.6323 101.789 14.6573L102.257 14.6991L102.207 15.0962C101.78 15.0628 101.392 15.046 101.032 15.046C100.665 15.046 100.305 15.0628 99.9457 15.0962V15.0419C100.059 14.4233 100.159 13.8382 100.242 13.2865C99.557 14.0012 98.9342 14.5069 98.3825 14.7994C97.8308 15.092 97.2958 15.2383 96.7859 15.2383C96.0754 15.2383 95.4903 15.0168 95.0305 14.5737C94.6502 14.2143 94.4621 13.7086 94.4621 13.0608C94.4621 12.8434 94.4788 12.5717 94.5164 12.2457C94.554 11.9197 94.6836 11.042 94.9051 9.61264C95.227 7.59392 95.3858 6.44037 95.3858 6.16034C95.3858 5.98062 95.344 5.85941 95.2604 5.80508C95.181 5.74238 94.8633 5.68387 94.3033 5.62536Z" fill="white"/>
<path d="M104.722 15.0964V14.6868L105.203 14.6534C105.512 14.6283 105.7 14.5907 105.776 14.5322C105.847 14.4737 105.905 14.3817 105.943 14.2521C106.035 13.9638 106.235 12.7642 106.545 10.6452C106.783 8.98174 106.996 7.37262 107.184 5.82619C105.964 5.83873 105.266 5.85963 105.099 5.88052C104.931 5.90142 104.81 5.95993 104.735 6.04771C104.622 6.17309 104.518 6.46984 104.426 6.94213L104.3 7.51054H103.958L104.125 5.95576C104.137 5.76768 104.146 5.52526 104.15 5.22852C105.508 5.26195 106.653 5.27867 107.598 5.27867C108.497 5.27867 109.767 5.26195 111.406 5.22852C111.28 5.82619 111.167 6.58687 111.067 7.51054H110.712L110.754 6.39461C110.754 6.16891 110.674 6.02263 110.515 5.95576C110.356 5.88888 109.608 5.84709 108.275 5.82619C107.473 10.9754 107.076 13.7715 107.076 14.2187C107.076 14.3984 107.126 14.5155 107.23 14.574C107.335 14.6283 107.698 14.6701 108.321 14.691L108.271 15.1006C107.682 15.0672 107.08 15.0504 106.474 15.0504C105.834 15.0504 105.253 15.0671 104.722 15.0964Z" fill="white"/>
<path d="M112.773 11.2888C112.773 12.0829 112.877 12.7098 113.082 13.1654C113.287 13.621 113.6 13.9804 114.027 14.2437C114.449 14.507 114.95 14.6408 115.527 14.6408C116.785 14.6408 117.721 14.0431 118.344 12.8436C118.917 11.7486 119.201 10.432 119.201 8.89811C119.201 8.12489 119.096 7.5105 118.887 7.05075C118.678 6.591 118.373 6.23574 117.968 5.98915C117.563 5.74256 117.065 5.61717 116.468 5.61717C115.732 5.61717 115.101 5.80943 114.583 6.19812C114.064 6.58682 113.634 7.23883 113.287 8.16251C112.948 9.08201 112.773 10.1269 112.773 11.2888ZM115.255 15.2385C114.369 15.2385 113.684 15.0964 113.203 14.8163C112.723 14.5363 112.342 14.1184 112.071 13.5667C111.795 13.015 111.657 12.3086 111.657 11.4434C111.657 9.74655 112.1 8.26282 112.986 6.99642C113.872 5.72584 115.159 5.09473 116.839 5.09473C117.985 5.09473 118.854 5.42491 119.452 6.0811C120.049 6.73729 120.346 7.6735 120.346 8.88975C120.346 10.0642 120.108 11.1509 119.631 12.154C119.155 13.1571 118.536 13.9219 117.772 14.4485C117.011 14.971 116.171 15.2385 115.255 15.2385Z" fill="white"/>
<path d="M121.775 12.5179H122.155C122.147 12.8355 122.143 13.1531 122.143 13.4624L122.155 13.8971C122.439 14.127 122.719 14.2942 123.004 14.3987C123.284 14.499 123.585 14.5491 123.906 14.5491C124.563 14.5491 125.098 14.3318 125.507 13.8971C125.917 13.4624 126.122 12.9191 126.122 12.2671C126.122 11.7864 126.009 11.4312 125.779 11.2055C125.545 10.9798 125.135 10.8001 124.554 10.6663C123.886 10.5075 123.413 10.3403 123.146 10.1606C122.878 9.98088 122.669 9.73847 122.523 9.43754C122.377 9.13661 122.306 8.77299 122.306 8.35086C122.306 7.42718 122.636 6.64979 123.3 6.02704C123.965 5.40429 124.784 5.09082 125.766 5.09082C126.101 5.09082 126.393 5.12426 126.644 5.19113C126.895 5.258 127.154 5.37503 127.417 5.54221C127.258 6.14406 127.154 6.77099 127.1 7.423H126.724L126.728 6.90474L126.724 6.36976C126.502 6.11063 126.285 5.93091 126.076 5.83478C125.863 5.73865 125.599 5.68849 125.29 5.68849C124.671 5.68849 124.174 5.88911 123.81 6.28617C123.443 6.68322 123.259 7.20567 123.259 7.84514C123.259 8.19204 123.309 8.46789 123.413 8.66851C123.518 8.8733 123.681 9.04466 123.902 9.18259C124.124 9.32051 124.533 9.46262 125.123 9.61308C125.741 9.76354 126.168 9.91819 126.397 10.0687C126.627 10.2191 126.811 10.4364 126.941 10.7207C127.07 11.0049 127.137 11.3351 127.137 11.7112C127.137 12.6098 126.774 13.4206 126.042 14.1437C125.315 14.8709 124.462 15.2304 123.489 15.2304C123.121 15.2304 122.77 15.1802 122.431 15.0799C122.093 14.9796 121.762 14.8333 121.449 14.6411C121.587 14.0141 121.696 13.3036 121.775 12.5179Z" fill="white"/>
<path d="M89.1123 6.57413L86.9723 10.6366C87.6411 10.6492 88.1551 10.6575 88.5146 10.6575C88.8448 10.6575 89.2627 10.6492 89.7643 10.6366L89.1123 6.57413ZM89.827 5.18652L91.1937 13.3617C91.2982 13.9886 91.3734 14.3564 91.4194 14.4651C91.4444 14.532 91.4946 14.5821 91.5698 14.6197C91.6451 14.6574 91.9084 14.6992 92.3639 14.7409V15.1631C91.9084 15.1296 91.3776 15.1129 90.7841 15.1129C90.2031 15.1129 89.6849 15.1296 89.2209 15.1631V14.7409L89.6472 14.7284C89.9314 14.7242 90.1153 14.6908 90.1989 14.6281C90.2825 14.5654 90.3243 14.4609 90.3243 14.3188C90.3243 14.1809 90.2951 13.9134 90.2324 13.5205L89.8646 11.18H86.6798L86.1657 12.1789C85.6558 13.1694 85.359 13.7838 85.2671 14.0221C85.196 14.1976 85.1584 14.3272 85.1584 14.4024C85.1584 14.4944 85.2044 14.5654 85.3005 14.6114C85.3966 14.6574 85.7185 14.7033 86.2785 14.7451V15.1673C85.6223 15.1338 85.1124 15.1171 84.7488 15.1171C84.3476 15.1171 83.9129 15.1338 83.449 15.1673V14.7451C83.7917 14.7284 84.0007 14.6908 84.0717 14.6406C84.147 14.5905 84.3476 14.2728 84.6736 13.6877L89.2251 5.18652H89.827V5.18652Z" fill="white"/>
<path d="M94.2154 5.69247V5.29959C94.7211 5.33303 95.1057 5.34556 95.3773 5.34556C95.695 5.34556 96.0795 5.32885 96.5392 5.29959C96.2676 6.63704 95.9583 8.49694 95.6114 10.8876C95.4567 11.966 95.3815 12.6472 95.3815 12.9398C95.3815 13.4037 95.5362 13.7757 95.8454 14.0557C96.1547 14.3358 96.5936 14.4779 97.1662 14.4779C97.697 14.4779 98.2361 14.319 98.7711 13.9972C99.3103 13.6796 99.8035 13.2031 100.251 12.5762C100.501 10.9963 100.769 9.13223 101.053 6.98812C101.112 6.55345 101.141 6.26924 101.141 6.12714C101.141 5.96832 101.099 5.86801 101.02 5.81785C100.94 5.7677 100.61 5.7259 100.029 5.68829V5.29541C100.489 5.32885 101.087 5.34138 101.81 5.34138C102.161 5.34138 102.65 5.32467 103.281 5.29541V5.68829C102.809 5.72172 102.541 5.75516 102.478 5.78442C102.416 5.81367 102.357 5.86801 102.311 5.93488C102.265 6.00593 102.215 6.18565 102.157 6.47404L101.78 8.90653L101.291 12.1499C101.107 13.3912 101.016 14.1226 101.016 14.3441C101.016 14.4779 101.049 14.5698 101.116 14.6158C101.183 14.6618 101.379 14.6952 101.701 14.7203L102.169 14.7621L102.119 15.1549C101.693 15.1215 101.304 15.1048 100.944 15.1048C100.577 15.1048 100.213 15.1215 99.8578 15.1549V15.1006C99.9706 14.482 100.071 13.8969 100.155 13.3452C99.4691 14.0599 98.8505 14.5656 98.2946 14.8582C97.7429 15.1508 97.208 15.297 96.6981 15.297C95.9875 15.297 95.4024 15.0755 94.9427 14.6325C94.5665 14.2731 94.3742 13.7673 94.3742 13.1195C94.3742 12.9022 94.391 12.6305 94.4286 12.3045C94.4662 11.9785 94.5958 11.1008 94.8173 9.67139C95.1391 7.65267 95.2979 6.49912 95.2979 6.21909C95.2979 6.03937 95.2561 5.91816 95.1725 5.85965C95.0931 5.81367 94.7755 5.75516 94.2154 5.69247Z" fill="white"/>
<path d="M104.635 15.1677V14.7581L105.116 14.7247C105.425 14.7038 105.613 14.662 105.688 14.6035C105.764 14.5449 105.818 14.453 105.855 14.3234C105.947 14.035 106.148 12.8355 106.453 10.7165C106.691 9.05303 106.905 7.44809 107.093 5.89748C105.872 5.91002 105.174 5.93091 105.007 5.95181C104.84 5.97689 104.719 6.03122 104.643 6.11899C104.531 6.24438 104.426 6.54113 104.33 7.01342L104.205 7.58183H103.862L104.029 6.02704C104.042 5.83897 104.05 5.59655 104.054 5.2998C105.412 5.33324 106.558 5.34578 107.502 5.34578C108.401 5.34578 109.671 5.32906 111.31 5.2998C111.184 5.89748 111.072 6.65815 110.971 7.58183H110.616L110.662 6.4659C110.662 6.2402 110.583 6.09392 110.42 6.02704C110.261 5.96017 109.513 5.91838 108.179 5.89748C107.377 11.0467 106.98 13.8428 106.98 14.29C106.98 14.4697 107.03 14.5867 107.134 14.6453C107.239 14.6996 107.603 14.7414 108.225 14.7623L108.175 15.1719C107.586 15.1384 106.984 15.1259 106.378 15.1259C105.747 15.1175 105.166 15.1343 104.635 15.1677Z" fill="white"/>
<path d="M112.685 11.3597C112.685 12.1538 112.789 12.7807 112.994 13.2363C113.199 13.6918 113.512 14.0513 113.939 14.3146C114.361 14.5779 114.862 14.7075 115.439 14.7075C116.697 14.7075 117.634 14.1098 118.256 12.9103C118.829 11.8152 119.113 10.4987 119.113 8.96479C119.113 8.19157 119.009 7.57718 118.8 7.11743C118.591 6.65768 118.286 6.30242 117.88 6.05583C117.475 5.80923 116.977 5.68385 116.38 5.68385C115.644 5.68385 115.017 5.88029 114.499 6.2648C113.981 6.6535 113.55 7.30551 113.203 8.22919C112.86 9.15287 112.685 10.1936 112.685 11.3597ZM115.168 15.3051C114.282 15.3051 113.596 15.163 113.115 14.883C112.635 14.603 112.259 14.185 111.983 13.6333C111.707 13.0816 111.569 12.3753 111.569 11.5101C111.569 9.81323 112.012 8.3295 112.898 7.0631C113.784 5.79252 115.071 5.15723 116.752 5.15723C117.897 5.15723 118.766 5.48741 119.364 6.1436C119.957 6.79979 120.258 7.736 120.258 8.95225C120.258 10.1267 120.02 11.2176 119.544 12.2206C119.067 13.2237 118.449 13.9886 117.684 14.5152C116.919 15.0418 116.083 15.3051 115.168 15.3051Z" fill="white"/>
<path d="M121.687 12.5887H122.068C122.059 12.9063 122.055 13.224 122.055 13.5332L122.068 13.9721C122.352 14.202 122.632 14.3691 122.916 14.4695C123.196 14.5698 123.497 14.6199 123.819 14.6199C124.475 14.6199 125.01 14.4026 125.42 13.9679C125.829 13.5332 126.034 12.9899 126.034 12.3379C126.034 11.8572 125.921 11.502 125.691 11.2763C125.457 11.0506 125.052 10.8709 124.467 10.7371C123.798 10.5783 123.326 10.4111 123.058 10.2314C122.791 10.0517 122.582 9.80927 122.436 9.50834C122.289 9.20741 122.218 8.84379 122.218 8.42166C122.218 7.49798 122.548 6.72477 123.213 6.09784C123.873 5.47509 124.697 5.16162 125.679 5.16162C126.013 5.16162 126.306 5.19506 126.557 5.26193C126.807 5.3288 127.066 5.44583 127.33 5.61301C127.171 6.21486 127.066 6.8418 127.012 7.4938H126.636L126.644 6.97554L126.636 6.44056C126.414 6.18143 126.197 6.00171 125.988 5.90558C125.775 5.80945 125.512 5.75929 125.202 5.75929C124.584 5.75929 124.086 5.95991 123.723 6.35697C123.355 6.75403 123.175 7.27647 123.175 7.91594C123.175 8.26284 123.225 8.53869 123.33 8.74349C123.434 8.94828 123.597 9.11964 123.819 9.25757C124.04 9.39549 124.45 9.54178 125.039 9.68806C125.658 9.83852 126.084 9.99317 126.318 10.1436C126.548 10.2983 126.732 10.5114 126.862 10.7956C126.991 11.0757 127.058 11.41 127.058 11.7862C127.058 12.6848 126.694 13.4956 125.963 14.2187C125.236 14.9459 124.383 15.3054 123.409 15.3054C123.042 15.3054 122.69 15.2552 122.352 15.1549C122.013 15.0546 121.683 14.9083 121.37 14.716C121.499 14.0849 121.608 13.3744 121.687 12.5887Z" fill="white"/>
<path d="M66.4468 32.3619V31.944L66.8481 31.9147C67.1114 31.9022 67.2786 31.8604 67.3496 31.8019C67.4207 31.7392 67.4792 31.5929 67.5294 31.363C67.6547 30.8113 67.8888 29.3986 68.2273 27.1208C68.5701 24.8429 68.7414 23.5974 68.7414 23.3801C68.7414 23.1962 68.6871 23.0708 68.5784 23.0039C68.4697 22.9413 68.1396 22.8911 67.592 22.8577V22.4773C68.453 22.5191 69.0256 22.54 69.3015 22.54C69.569 22.54 69.9535 22.5275 70.455 22.5066C70.9231 22.4815 71.27 22.4731 71.4916 22.4731C72.0767 22.4731 72.5281 22.5526 72.8374 22.7156C73.1467 22.8786 73.3891 23.1252 73.5688 23.4595C73.7443 23.7939 73.8363 24.1951 73.8363 24.6632C73.8363 25.2609 73.6942 25.846 73.4058 26.4186C73.1174 26.9954 72.7496 27.4343 72.294 27.7435C71.8385 28.0528 71.3536 28.2033 70.827 28.2033C70.4383 28.2033 70.0622 28.0946 69.6902 27.8773V27.4384C70.0538 27.5973 70.3673 27.6725 70.6347 27.6725C71.2617 27.6725 71.7632 27.405 72.1436 26.87C72.5239 26.335 72.7162 25.6663 72.7162 24.8638C72.7162 24.262 72.5615 23.8022 72.2522 23.4846C71.9429 23.1669 71.4874 23.0081 70.8939 23.0081C70.6515 23.0081 70.3171 23.0457 69.8824 23.1252C69.523 25.1773 69.1928 27.2253 68.8877 29.2607C68.7163 30.3976 68.6327 31.1206 68.6327 31.4257C68.6327 31.6013 68.6829 31.7183 68.779 31.7726C68.8752 31.827 69.2555 31.8813 69.92 31.9398V32.3578C69.0047 32.3243 68.3318 32.3076 67.8971 32.3076C67.429 32.3118 66.9484 32.3285 66.4468 32.3619Z" fill="white"/>
<path d="M74.1326 32.3622V31.9526L74.5255 31.9317C74.8223 31.9192 75.002 31.8816 75.073 31.823C75.1399 31.7645 75.2026 31.6182 75.2569 31.3842C75.3531 30.9537 75.5913 29.5285 75.9716 27.1043C76.2893 25.0564 76.4481 23.8359 76.4481 23.4431C76.4481 23.2466 76.3938 23.1171 76.2809 23.046C76.1723 22.975 75.8337 22.9248 75.2653 22.8872V22.4901C76.1555 22.5236 76.795 22.5403 77.1837 22.5403C77.493 22.5403 77.8859 22.5278 78.3623 22.4985C78.6925 22.4818 78.96 22.4692 79.169 22.4692C79.9338 22.4692 80.4981 22.6448 80.8617 22.9959C81.2253 23.3469 81.405 23.8192 81.405 24.4085C81.405 24.8014 81.3006 25.2027 81.0916 25.6164C80.8826 26.026 80.5984 26.3687 80.2431 26.6404C79.8837 26.9121 79.3905 27.1294 78.7552 27.2924C79.4532 28.5254 80.1177 29.6413 80.7447 30.6402C81.1793 31.3257 81.4552 31.7102 81.5764 31.798C81.6725 31.869 81.8606 31.915 82.1406 31.9443V32.3538C81.7645 32.3204 81.451 32.3037 81.1961 32.3037C80.9578 32.3037 80.7071 32.3204 80.4396 32.3538C80.0634 31.5848 79.5786 30.6904 78.9809 29.658C78.3832 28.6299 77.8524 27.7773 77.3927 27.1043V26.9581C77.6602 26.9957 77.8524 27.0124 77.9695 27.0124C78.3623 27.0124 78.751 26.8996 79.1397 26.678C79.5284 26.4523 79.821 26.1598 80.0258 25.792C80.2264 25.4242 80.3267 25.0313 80.3267 24.6175C80.3267 24.1076 80.1888 23.7106 79.9129 23.4264C79.6371 23.1421 79.215 23 78.6465 23C78.3414 23 77.9945 23.046 77.5975 23.1338C77.3258 24.6719 76.9998 26.7365 76.6153 29.3279C76.4356 30.5316 76.3478 31.2588 76.3478 31.5138C76.3478 31.6851 76.4063 31.7938 76.5275 31.8481C76.5944 31.8774 76.9079 31.915 77.4721 31.961L77.4219 32.3706C76.8493 32.3371 76.3645 32.3204 75.9675 32.3204C75.5453 32.3121 74.9351 32.3288 74.1326 32.3622Z" fill="white"/>
<path d="M84.4264 28.5547C84.4264 29.3488 84.5309 29.9757 84.7357 30.4313C84.9405 30.8869 85.2539 31.2463 85.6803 31.5096C86.1024 31.7729 86.6039 31.9067 87.1807 31.9067C88.4388 31.9067 89.375 31.309 89.9977 30.1095C90.5661 29.0145 90.8545 27.6979 90.8545 26.164C90.8545 25.3908 90.75 24.7764 90.5411 24.3166C90.3321 23.8569 90.027 23.5016 89.6216 23.255C89.2161 23.0085 88.7188 22.8831 88.1211 22.8831C87.3855 22.8831 86.7544 23.0753 86.2403 23.464C85.7221 23.8527 85.2916 24.5047 84.9447 25.4284C84.6019 26.3479 84.4264 27.3886 84.4264 28.5547ZM86.909 32.5002C86.023 32.5002 85.3375 32.3581 84.8569 32.0781C84.3762 31.7938 84.0001 31.3801 83.7242 30.8284C83.4484 30.2767 83.3105 29.5703 83.3105 28.7052C83.3105 27.0083 83.7535 25.5245 84.6396 24.2581C85.5256 22.9876 86.8129 22.3564 88.4931 22.3564C89.6383 22.3564 90.5076 22.6866 91.1053 23.3428C91.703 23.999 91.9997 24.9352 91.9997 26.1515C91.9997 27.3259 91.7615 28.4126 91.285 29.4157C90.8086 30.4188 90.19 31.1836 89.4293 31.7103C88.6645 32.2369 87.8244 32.5002 86.909 32.5002Z" fill="white"/>
<path d="M92.74 32.3619V31.944L93.1412 31.9147C93.4045 31.9022 93.5717 31.8604 93.6428 31.8019C93.7138 31.7392 93.7723 31.5929 93.8225 31.363C93.9479 30.8113 94.1819 29.3986 94.5205 27.1208C94.8632 24.8429 95.0346 23.5974 95.0346 23.3801C95.0346 23.1962 94.9802 23.0708 94.8716 23.0039C94.7629 22.9413 94.4327 22.8911 93.8852 22.8577V22.4773C94.7462 22.5191 95.3188 22.54 95.5946 22.54C95.8621 22.54 96.2466 22.5275 96.7482 22.5066C97.2163 22.4815 97.5632 22.4731 97.7847 22.4731C98.3698 22.4731 98.817 22.5526 99.1305 22.7156C99.4398 22.8786 99.6822 23.1252 99.8619 23.4595C100.037 23.7939 100.125 24.1951 100.125 24.6632C100.125 25.2609 99.9831 25.846 99.6947 26.4186C99.4064 26.9954 99.0386 27.4343 98.583 27.7435C98.1316 28.0528 97.6426 28.2033 97.116 28.2033C96.7273 28.2033 96.3511 28.0946 95.9791 27.8773V27.4384C96.3428 27.5973 96.6562 27.6725 96.9237 27.6725C97.5506 27.6725 98.0522 27.405 98.4325 26.87C98.8129 26.335 99.0051 25.6663 99.0051 24.8638C99.0051 24.262 98.8505 23.8022 98.5412 23.4846C98.2319 23.1669 97.7763 23.0081 97.1828 23.0081C96.9404 23.0081 96.6019 23.0457 96.1714 23.1252C95.812 25.1773 95.4818 27.2253 95.1767 29.2607C95.0053 30.3976 94.9217 31.1206 94.9217 31.4257C94.9217 31.6013 94.9719 31.7183 95.068 31.7726C95.1641 31.827 95.5445 31.8813 96.209 31.9398V32.3578C95.2937 32.3243 94.6208 32.3076 94.1861 32.3076C93.7264 32.3118 93.2457 32.3285 92.74 32.3619Z" fill="white"/>
<path d="M100.296 32.3623L100.346 31.9652C100.852 31.9485 101.14 31.9067 101.22 31.8482C101.295 31.7897 101.366 31.6518 101.424 31.4386C101.516 31.1043 101.742 29.7334 102.106 27.3218C102.469 24.9102 102.649 23.5769 102.649 23.3178C102.649 23.1381 102.603 23.0252 102.507 22.9834C102.444 22.9542 102.122 22.9165 101.546 22.8664L101.608 22.4902C102.227 22.5237 102.749 22.5404 103.167 22.5404C103.627 22.5404 104.195 22.5237 104.864 22.4902V22.8664C104.346 22.8831 104.045 22.9124 103.966 22.9542C103.89 22.9918 103.828 23.0587 103.778 23.1506C103.727 23.2426 103.64 23.673 103.51 24.4379L103.059 27.4806L102.57 30.7992C102.519 31.1753 102.494 31.4094 102.494 31.5139C102.494 31.6727 102.532 31.773 102.607 31.819C102.708 31.8733 103.038 31.9235 103.594 31.9652L103.548 32.3623C102.912 32.3289 102.398 32.3121 102.018 32.3121C101.684 32.3121 101.107 32.3289 100.296 32.3623Z" fill="white"/>
<path d="M105.007 32.3748L105.053 32.0363L105.27 31.9527C105.425 31.8858 105.571 31.8231 105.705 31.7563C105.96 30.5651 106.29 28.6007 106.696 25.8589C106.905 24.4421 107.009 23.6187 107.009 23.3847C107.009 23.2133 106.959 23.1004 106.863 23.0419C106.767 22.9834 106.432 22.9333 105.86 22.8873L105.914 22.4902C106.646 22.5237 107.285 22.5404 107.833 22.5404L110.637 22.4902C111.093 22.4902 111.49 22.507 111.837 22.5446C111.732 23.1381 111.661 23.8319 111.619 24.6302H111.264C111.239 23.7984 111.189 23.3387 111.113 23.2509C111.009 23.1381 110.399 23.0795 109.287 23.0795C108.936 23.0795 108.56 23.0879 108.159 23.1088C107.937 24.3418 107.732 25.6165 107.54 26.9289C108.092 26.9498 108.585 26.9623 109.02 26.9623C109.529 26.9623 110.106 26.9247 110.758 26.8537L110.821 26.9289C110.737 27.1421 110.658 27.3719 110.578 27.6227C109.989 27.5684 109.241 27.5391 108.342 27.5391L107.448 27.5517C107.16 29.3739 106.967 30.7281 106.867 31.6225C107.557 31.7019 108.28 31.7396 109.028 31.7396C109.521 31.7396 109.968 31.7145 110.365 31.6643C110.499 31.6476 110.595 31.6142 110.65 31.5682C110.704 31.5222 110.754 31.4428 110.796 31.3258C110.829 31.2422 110.938 30.8075 111.126 30.0218H111.502L111.385 30.8075C111.31 31.2631 111.251 31.7688 111.205 32.3121C110.879 32.3581 110.549 32.3832 110.211 32.3832C109.989 32.3832 109.663 32.3748 109.229 32.3623C108.296 32.3289 107.569 32.3121 107.055 32.3121C106.403 32.3121 105.722 32.333 105.007 32.3748Z" fill="white"/>
<path d="M114.469 31.5722C115.176 31.7143 115.794 31.7854 116.325 31.7854C117.19 31.7854 117.896 31.5973 118.44 31.2211C118.983 30.845 119.451 30.2097 119.84 29.3194C120.229 28.425 120.425 27.4596 120.425 26.4147C120.425 25.6665 120.308 25.048 120.07 24.5631C119.832 24.0783 119.489 23.7063 119.033 23.4514C118.578 23.1964 118.005 23.071 117.303 23.071C116.78 23.071 116.246 23.0919 115.706 23.1337C115.598 23.7147 115.422 24.8139 115.18 26.4188L115.088 27.0291C114.774 29.1063 114.57 30.6193 114.469 31.5722ZM112.739 32.3496V32.0027C112.948 31.9651 113.09 31.9149 113.174 31.8481C113.253 31.7812 113.324 31.6725 113.378 31.5262C113.433 31.38 113.541 30.7865 113.704 29.7458L114.11 27.0332L114.193 26.423C114.436 24.6885 114.557 23.6854 114.557 23.4138C114.557 23.2048 114.482 23.0627 114.331 22.9916C114.252 22.9582 113.951 22.9206 113.433 22.8788V22.4859C114.055 22.5277 114.628 22.5486 115.15 22.5486C115.443 22.5486 115.832 22.5402 116.317 22.5193C116.994 22.4901 117.466 22.4775 117.733 22.4775C118.686 22.4775 119.426 22.6155 119.949 22.8955C120.471 23.1755 120.872 23.5893 121.152 24.1326C121.432 24.6802 121.57 25.3823 121.57 26.2391C121.57 27.9318 121.014 29.403 119.907 30.6485C118.883 31.8021 117.587 32.383 116.02 32.383C115.802 32.383 115.485 32.3747 115.071 32.3538C114.494 32.3245 114.035 32.312 113.692 32.312C113.408 32.312 113.09 32.3245 112.739 32.3496Z" fill="white"/>
<path d="M127.647 23.7692L125.508 27.8317C126.176 27.8443 126.69 27.8526 127.05 27.8526C127.38 27.8526 127.798 27.8443 128.3 27.8317L127.647 23.7692ZM128.358 22.3816L129.725 30.5526C129.829 31.1795 129.904 31.5473 129.95 31.656C129.976 31.7187 130.026 31.773 130.101 31.8107C130.176 31.8483 130.439 31.8901 130.895 31.9319V32.354C130.435 32.3206 129.909 32.3038 129.315 32.3038C128.734 32.3038 128.216 32.3206 127.752 32.354V31.9319L128.178 31.9193C128.463 31.9151 128.646 31.8817 128.73 31.819C128.814 31.7563 128.855 31.6518 128.855 31.5097C128.855 31.3718 128.826 31.1043 128.763 30.7114L128.396 28.3709H125.211L124.697 29.3698C124.187 30.3604 123.89 30.9748 123.798 31.213C123.727 31.3885 123.689 31.5181 123.689 31.5933C123.689 31.6853 123.735 31.7563 123.832 31.8023C123.924 31.8483 124.25 31.8943 124.81 31.936V32.3582C124.153 32.3247 123.643 32.308 123.28 32.308C122.879 32.308 122.448 32.3247 121.98 32.3582V31.936C122.323 31.9193 122.532 31.8817 122.603 31.8316C122.678 31.7814 122.879 31.4638 123.2 30.8786L127.752 22.3774H128.358V22.3816Z" fill="white"/>
<path d="M133.658 31.5722C134.364 31.7143 134.982 31.7854 135.513 31.7854C136.378 31.7854 137.085 31.5973 137.628 31.2211C138.171 30.845 138.64 30.2097 139.028 29.3194C139.417 28.425 139.613 27.4596 139.613 26.4147C139.613 25.6665 139.496 25.048 139.258 24.5631C139.02 24.0783 138.677 23.7063 138.222 23.4514C137.766 23.1964 137.193 23.071 136.491 23.071C135.969 23.071 135.434 23.0919 134.895 23.1337C134.786 23.7147 134.61 24.8139 134.368 26.4188L134.276 27.0291C133.963 29.1063 133.758 30.6193 133.658 31.5722ZM131.927 32.3496V32.0027C132.136 31.9651 132.278 31.9149 132.362 31.8481C132.441 31.7812 132.512 31.6725 132.567 31.5262C132.621 31.38 132.73 30.7865 132.893 29.7458L133.298 27.0332L133.382 26.423C133.624 24.6885 133.745 23.6854 133.745 23.4138C133.745 23.2048 133.67 23.0627 133.52 22.9916C133.44 22.9582 133.139 22.9206 132.621 22.8788V22.4859C133.244 22.5277 133.816 22.5486 134.339 22.5486C134.631 22.5486 135.02 22.5402 135.505 22.5193C136.182 22.4901 136.654 22.4775 136.922 22.4775C137.875 22.4775 138.614 22.6155 139.137 22.8955C139.659 23.1755 140.061 23.5893 140.341 24.1326C140.621 24.6802 140.759 25.3823 140.759 26.2391C140.759 27.9318 140.203 29.403 139.095 30.6485C138.071 31.8021 136.775 32.383 135.208 32.383C134.991 32.383 134.673 32.3747 134.259 32.3538C133.683 32.3245 133.223 32.312 132.88 32.312C132.592 32.312 132.278 32.3245 131.927 32.3496Z" fill="white"/>
<path d="M141.958 32.3748L142.004 32.0363L142.222 31.9527C142.376 31.8858 142.523 31.8231 142.66 31.7563C142.915 30.5651 143.246 28.6007 143.651 25.8589C143.86 24.4421 143.965 23.6187 143.965 23.3847C143.965 23.2133 143.914 23.1004 143.818 23.0419C143.722 22.9834 143.388 22.9333 142.815 22.8873L142.869 22.4902C143.601 22.5237 144.24 22.5404 144.788 22.5404L147.592 22.4902C148.048 22.4902 148.445 22.507 148.792 22.5446C148.687 23.1381 148.616 23.8319 148.575 24.6302H148.219C148.194 23.7984 148.144 23.3387 148.069 23.2509C147.964 23.1381 147.354 23.0795 146.242 23.0795C145.891 23.0795 145.515 23.0879 145.114 23.1088C144.892 24.3418 144.688 25.6165 144.495 26.9289C145.047 26.9498 145.54 26.9623 145.975 26.9623C146.485 26.9623 147.062 26.9247 147.714 26.8537L147.776 26.9289C147.693 27.1421 147.613 27.3719 147.534 27.6227C146.945 27.5684 146.196 27.5391 145.298 27.5391L144.403 27.5517C144.115 29.3739 143.923 30.7281 143.822 31.6225C144.512 31.7019 145.235 31.7396 145.983 31.7396C146.476 31.7396 146.924 31.7145 147.321 31.6643C147.454 31.6476 147.551 31.6142 147.605 31.5682C147.659 31.5222 147.709 31.4428 147.751 31.3258C147.785 31.2422 147.893 30.8075 148.081 30.0218H148.458L148.34 30.8075C148.265 31.2631 148.207 31.7688 148.161 32.3121C147.835 32.3581 147.505 32.3832 147.166 32.3832C146.945 32.3832 146.619 32.3748 146.184 32.3623C145.252 32.3289 144.525 32.3121 144.01 32.3121C143.354 32.3121 142.673 32.333 141.958 32.3748Z" fill="white"/>
<path d="M150.267 29.7835H150.647C150.639 30.1011 150.635 30.4188 150.635 30.7281L150.647 31.1627C150.931 31.3926 151.211 31.5598 151.496 31.6643C151.776 31.7646 152.076 31.8147 152.398 31.8147C153.054 31.8147 153.589 31.5974 153.999 31.1627C154.409 30.7281 154.613 30.1847 154.613 29.5327C154.613 29.0521 154.501 28.6968 154.271 28.4711C154.037 28.2454 153.627 28.0657 153.046 27.9319C152.377 27.7731 151.905 27.6059 151.638 27.4262C151.37 27.2465 151.161 27.0041 151.015 26.7032C150.869 26.4022 150.798 26.0386 150.798 25.6165C150.798 24.6928 151.128 23.9196 151.788 23.2927C152.453 22.6699 153.272 22.3564 154.254 22.3564C154.588 22.3564 154.881 22.3899 155.132 22.4568C155.382 22.5236 155.642 22.6407 155.905 22.8078C155.746 23.4097 155.642 24.0366 155.587 24.6886H155.211L155.219 24.1704L155.211 23.6354C154.99 23.3763 154.772 23.1965 154.563 23.1004C154.35 23.0043 154.087 22.9541 153.778 22.9541C153.159 22.9541 152.666 23.1547 152.298 23.5518C151.93 23.9488 151.746 24.4713 151.746 25.1108C151.746 25.4577 151.796 25.7335 151.901 25.9341C152.005 26.1389 152.168 26.3103 152.39 26.4482C152.611 26.5861 153.021 26.7324 153.61 26.8787C154.229 27.0292 154.655 27.1838 154.889 27.3343C155.119 27.4847 155.303 27.7021 155.433 27.9863C155.562 28.2663 155.629 28.6007 155.629 28.9768C155.629 29.8754 155.265 30.6863 154.538 31.4093C153.811 32.1366 152.958 32.496 151.985 32.496C151.617 32.496 151.266 32.4459 150.927 32.3455C150.589 32.2452 150.258 32.0989 149.945 31.9067C150.083 31.2798 150.191 30.5692 150.267 29.7835Z" fill="white"/>
<path d="M136.901 12.0536L136.608 12.0076L136.696 10.5657C136.909 10.3483 137.122 10.1937 137.344 10.1018C137.561 10.0098 138.004 9.91368 138.665 9.80919C139.534 9.67126 140.107 9.55424 140.378 9.45393C140.65 9.3578 140.851 9.22405 140.972 9.05687C141.093 8.88969 141.156 8.70579 141.156 8.50517C141.156 8.34635 141.122 8.2126 141.055 8.09976C140.988 7.98691 140.867 7.86988 140.688 7.75703L140.955 7.49372C141.214 7.66926 141.386 7.84063 141.478 8.00781C141.569 8.17499 141.611 8.38815 141.611 8.64728C141.611 8.97746 141.532 9.27421 141.373 9.55006C141.214 9.82173 140.98 10.0349 140.675 10.1895C140.47 10.294 139.919 10.4278 139.02 10.5824C139.354 10.7036 139.593 10.8583 139.73 11.0547C139.873 11.2469 139.944 11.4852 139.944 11.761C139.944 12.5635 139.538 13.32 138.727 14.0305C137.8 14.8414 136.717 15.2426 135.484 15.2426C134.539 15.2426 133.787 14.9751 133.235 14.4401C132.68 13.9051 132.404 13.2448 132.404 12.4548C132.404 12.0034 132.491 11.5855 132.671 11.201C132.851 10.8165 133.098 10.4988 133.411 10.2522C133.724 10.0014 134.285 9.72978 135.095 9.43303C134.732 9.26167 134.477 9.05687 134.322 8.81446C134.167 8.57204 134.092 8.27948 134.092 7.93675C134.092 7.31818 134.397 6.71215 135.003 6.12701C135.718 5.44157 136.433 5.10303 137.148 5.10303C137.386 5.10303 137.591 5.13228 137.77 5.1908C137.946 5.24931 138.146 5.35798 138.372 5.51262C138.247 6.08522 138.142 6.6411 138.059 7.17608L137.754 7.16772C137.754 6.81246 137.749 6.53243 137.741 6.32763C137.557 6.15209 137.382 6.03089 137.214 5.95983C137.047 5.88878 136.851 5.85534 136.629 5.85534C136.157 5.85534 135.772 6.01417 135.472 6.33181C135.171 6.64946 135.02 7.04233 135.02 7.51462C135.02 7.97855 135.171 8.34635 135.472 8.61802C135.772 8.89387 136.215 9.02761 136.801 9.01926C136.7 9.25331 136.617 9.49154 136.55 9.73396C136.307 9.69634 136.124 9.67962 135.994 9.67962C135.547 9.67962 135.125 9.79247 134.728 10.0182C134.326 10.2439 134.025 10.549 133.821 10.9251C133.616 11.3055 133.511 11.7192 133.511 12.1748C133.511 12.8561 133.745 13.4203 134.213 13.8759C134.682 14.3314 135.309 14.5571 136.098 14.5571C136.964 14.5571 137.67 14.3106 138.213 13.8132C138.757 13.3158 139.028 12.7474 139.028 12.1038C139.028 11.7192 138.928 11.4225 138.732 11.2052C138.535 10.992 138.259 10.8833 137.908 10.8833C137.716 10.8833 137.553 10.9209 137.419 10.9962C137.285 11.0714 137.181 11.1759 137.11 11.3055C137.051 11.3891 136.984 11.6398 136.901 12.0536Z" fill="white"/>
<path d="M136.901 12.0536L136.608 12.0076L136.696 10.5657C136.909 10.3483 137.122 10.1937 137.344 10.1018C137.561 10.0098 138.004 9.91368 138.665 9.80919C139.534 9.67126 140.107 9.55424 140.378 9.45393C140.65 9.3578 140.851 9.22405 140.972 9.05687C141.093 8.88969 141.156 8.70579 141.156 8.50517C141.156 8.34635 141.122 8.2126 141.055 8.09976C140.988 7.98691 140.867 7.86988 140.688 7.75703L140.955 7.49372C141.214 7.66926 141.386 7.84063 141.478 8.00781C141.569 8.17499 141.611 8.38815 141.611 8.64728C141.611 8.97746 141.532 9.27421 141.373 9.55006C141.214 9.82173 140.98 10.0349 140.675 10.1895C140.47 10.294 139.919 10.4278 139.02 10.5824C139.354 10.7036 139.593 10.8583 139.73 11.0547C139.873 11.2469 139.944 11.4852 139.944 11.761C139.944 12.5635 139.538 13.32 138.727 14.0305C137.8 14.8414 136.717 15.2426 135.484 15.2426C134.539 15.2426 133.787 14.9751 133.235 14.4401C132.68 13.9051 132.404 13.2448 132.404 12.4548C132.404 12.0034 132.491 11.5855 132.671 11.201C132.851 10.8165 133.098 10.4988 133.411 10.2522C133.724 10.0014 134.285 9.72978 135.095 9.43303C134.732 9.26167 134.477 9.05687 134.322 8.81446C134.167 8.57204 134.092 8.27948 134.092 7.93675C134.092 7.31818 134.397 6.71215 135.003 6.12701C135.718 5.44157 136.433 5.10303 137.148 5.10303C137.386 5.10303 137.591 5.13228 137.77 5.1908C137.946 5.24931 138.146 5.35798 138.372 5.51262C138.247 6.08522 138.142 6.6411 138.059 7.17608L137.754 7.16772C137.754 6.81246 137.749 6.53243 137.741 6.32763C137.557 6.15209 137.382 6.03089 137.214 5.95983C137.047 5.88878 136.851 5.85534 136.629 5.85534C136.157 5.85534 135.772 6.01417 135.472 6.33181C135.171 6.64946 135.02 7.04233 135.02 7.51462C135.02 7.97855 135.171 8.34635 135.472 8.61802C135.772 8.89387 136.215 9.02761 136.801 9.01926C136.7 9.25331 136.617 9.49154 136.55 9.73396C136.307 9.69634 136.124 9.67962 135.994 9.67962C135.547 9.67962 135.125 9.79247 134.728 10.0182C134.326 10.2439 134.025 10.549 133.821 10.9251C133.616 11.3055 133.511 11.7192 133.511 12.1748C133.511 12.8561 133.745 13.4203 134.213 13.8759C134.682 14.3314 135.309 14.5571 136.098 14.5571C136.964 14.5571 137.67 14.3106 138.213 13.8132C138.757 13.3158 139.028 12.7474 139.028 12.1038C139.028 11.7192 138.928 11.4225 138.732 11.2052C138.535 10.992 138.259 10.8833 137.908 10.8833C137.716 10.8833 137.553 10.9209 137.419 10.9962C137.285 11.0714 137.181 11.1759 137.11 11.3055C137.051 11.3891 136.984 11.6398 136.901 12.0536Z" stroke="white" stroke-miterlimit="10"/>
</svg>
