<svg width="197" height="46" viewBox="0 0 197 46" fill="none" xmlns="http://www.w3.org/2000/svg">
<path d="M35.156 2.76074L0 42.1449H4.66635L34.6281 8.94207V42.2505H38.017V2.76074H35.156Z" fill="#0072BF"/>
<path d="M77.6436 14.2892C77.2635 12.6422 76.5879 11.0533 75.643 9.5753C74.6875 8.08672 73.4101 6.77761 71.8423 5.68492C70.7549 4.90368 69.5461 4.2544 68.2475 3.75292C66.9015 3.23561 65.5026 2.97168 64.0827 2.97168H51.4297V42.15H55.0245V6.59813H64.695C65.756 6.59813 66.8645 6.88846 67.9783 7.46383C69.1449 8.0656 70.2112 8.86796 71.1508 9.8498C72.101 10.8422 72.8875 11.9613 73.4946 13.1754C74.0805 14.3525 74.4078 15.5191 74.4658 16.654C74.5292 17.7045 74.5133 18.7444 74.4183 19.742C74.3286 20.6605 74.0752 21.5579 73.6635 22.4078L73.6529 22.4236C72.6289 24.6248 71.2353 26.3298 69.5092 27.4911C67.7777 28.6577 65.7191 29.3334 63.3964 29.4918L62.3354 29.5604V32.8912L63.3437 33.0073C64.3941 33.1288 65.4974 33.039 66.627 32.7434C67.6933 32.4636 68.6751 32.0941 69.5567 31.6455C71.23 30.8537 72.6869 29.7979 73.8746 28.4941C75.0518 27.2061 75.9967 25.7703 76.6882 24.2236C77.3797 22.6717 77.8125 21.0248 77.9709 19.3303C78.1345 17.6253 78.0237 15.9308 77.6436 14.2892Z" fill="#FFC000"/>
<path d="M43.3691 0V45.0799" stroke="#0D0A0E" stroke-width="2" stroke-miterlimit="10"/>
<path d="M112.657 8.21346L109.954 13.3443C110.799 13.3602 111.448 13.3707 111.902 13.3707C112.319 13.3707 112.847 13.3602 113.481 13.3443L112.657 8.21346ZM113.56 6.46622L115.286 16.786C115.418 17.5778 115.513 18.0424 115.571 18.1796C115.603 18.2641 115.666 18.3274 115.761 18.3749C115.856 18.4224 116.189 18.4752 116.764 18.528V19.0611C116.183 19.0189 115.518 18.9978 114.769 18.9978C114.04 18.9978 113.38 19.0189 112.794 19.0611V18.528L113.333 18.5122C113.692 18.5069 113.924 18.4646 114.03 18.3855C114.135 18.3063 114.188 18.1743 114.188 17.9948C114.188 17.8207 114.146 17.4828 114.072 16.9866L113.607 14.0306H109.585L108.936 15.2922C108.292 16.5432 107.917 17.3192 107.801 17.6201C107.711 17.8418 107.669 18.0054 107.669 18.1004C107.669 18.2166 107.727 18.3063 107.848 18.3644C107.97 18.4224 108.376 18.4805 109.083 18.5333V19.0664C108.255 19.0242 107.605 19.0031 107.151 19.0031C106.645 19.0031 106.101 19.0242 105.51 19.0664V18.5333C105.943 18.5122 106.207 18.4646 106.296 18.4013C106.391 18.338 106.645 17.9368 107.056 17.1978L112.805 6.46094H113.56V6.46622Z" fill="#1C1512"/>
<path d="M119.104 7.10539V6.60391C119.742 6.64614 120.228 6.66726 120.571 6.66726C120.972 6.66726 121.458 6.64614 122.038 6.60391C121.695 8.29309 121.305 10.6421 120.867 13.6615C120.671 15.0234 120.576 15.8838 120.576 16.2533C120.576 16.8393 120.772 17.3091 121.162 17.6627C121.553 18.0217 122.107 18.1959 122.825 18.1959C123.501 18.1959 124.176 17.9953 124.852 17.5941C125.533 17.1929 126.156 16.5912 126.721 15.7994C127.037 13.804 127.375 11.4497 127.734 8.74178C127.808 8.19279 127.845 7.82856 127.845 7.65437C127.845 7.45378 127.792 7.32709 127.692 7.26375C127.592 7.2004 127.175 7.14762 126.441 7.10011V6.59863C127.027 6.64086 127.776 6.66198 128.69 6.66198C129.133 6.66198 129.751 6.64086 130.548 6.59863V7.10011C129.951 7.14234 129.613 7.17929 129.534 7.22152C129.455 7.26375 129.381 7.32709 129.323 7.41155C129.265 7.50129 129.202 7.72827 129.128 8.0925L128.653 11.1647L128.04 15.2609C127.808 16.8287 127.692 17.7525 127.692 18.0375C127.692 18.2064 127.734 18.3226 127.819 18.3806C127.903 18.4387 128.151 18.4809 128.558 18.5126L129.149 18.5654L129.085 19.0669C128.547 19.0246 128.056 19.0035 127.602 19.0035C127.138 19.0035 126.684 19.0246 126.23 19.0669V18.9982C126.372 18.217 126.499 17.478 126.605 16.7812C125.739 17.6839 124.952 18.3226 124.256 18.6921C123.559 19.0616 122.883 19.2463 122.239 19.2463C121.342 19.2463 120.603 18.9666 120.022 18.407C119.542 17.9531 119.304 17.3143 119.304 16.4962C119.304 16.2217 119.325 15.8785 119.373 15.4668C119.42 15.0551 119.584 13.9466 119.864 12.1412C120.27 9.59164 120.471 8.13473 120.471 7.78106C120.471 7.55407 120.418 7.40099 120.312 7.33237C120.212 7.25319 119.811 7.17929 119.104 7.10539Z" fill="#1C1512"/>
<path d="M132.263 19.0665V18.5492L132.87 18.5069C133.261 18.4753 133.498 18.4278 133.593 18.3539C133.683 18.28 133.757 18.1638 133.804 18.0002C133.92 17.636 134.174 16.121 134.564 13.4447C134.865 11.3438 135.134 9.31148 135.372 7.35837C133.831 7.3742 132.949 7.4006 132.738 7.42699C132.527 7.45338 132.374 7.52728 132.279 7.63814C132.136 7.7965 132.004 8.17128 131.888 8.76777L131.73 9.48567H131.297L131.508 7.52201C131.524 7.28446 131.534 6.9783 131.54 6.60352C133.255 6.64575 134.702 6.66686 135.895 6.66686C137.03 6.66686 138.634 6.64575 140.703 6.60352C140.545 7.35837 140.403 8.31909 140.276 9.48567H139.827L139.88 8.07627C139.88 7.79122 139.78 7.60646 139.579 7.52201C139.379 7.43755 138.434 7.38476 136.75 7.35837C135.736 13.8617 135.235 17.3931 135.235 17.958C135.235 18.1849 135.298 18.3327 135.43 18.4066C135.562 18.4753 136.021 18.528 136.808 18.5544L136.744 19.0718C136 19.0295 135.24 19.0084 134.475 19.0084C133.667 19.0084 132.933 19.0295 132.263 19.0665Z" fill="#1C1512"/>
<path d="M142.429 14.2576C142.429 15.2605 142.561 16.0523 142.82 16.6277C143.078 17.2031 143.474 17.657 144.013 17.9896C144.546 18.3222 145.179 18.4911 145.908 18.4911C147.496 18.4911 148.679 17.7362 149.465 16.2212C150.189 14.8382 150.548 13.1754 150.548 11.2382C150.548 10.2616 150.416 9.48565 150.152 8.90499C149.888 8.32434 149.502 7.87565 148.99 7.56421C148.478 7.25277 147.85 7.0944 147.095 7.0944C146.166 7.0944 145.369 7.33722 144.715 7.82814C144.06 8.31906 143.516 9.14253 143.078 10.3091C142.651 11.4704 142.429 12.7901 142.429 14.2576ZM145.564 19.2459C144.445 19.2459 143.58 19.0664 142.973 18.7128C142.366 18.3591 141.885 17.8312 141.542 17.1344C141.194 16.4377 141.02 15.5456 141.02 14.4529C141.02 12.3097 141.579 10.4358 142.698 8.83637C143.817 7.23165 145.443 6.43457 147.565 6.43457C149.011 6.43457 150.109 6.85159 150.864 7.68034C151.619 8.50909 151.994 9.69151 151.994 11.2276C151.994 12.7109 151.693 14.0834 151.091 15.3503C150.489 16.6171 149.708 17.5831 148.742 18.2483C147.782 18.9081 146.721 19.2459 145.564 19.2459Z" fill="#1C1512"/>
<path d="M153.798 15.8099H154.279C154.268 16.2111 154.263 16.6123 154.263 17.0029L154.279 17.5519C154.638 17.8422 154.991 18.0533 155.35 18.1853C155.704 18.312 156.084 18.3753 156.491 18.3753C157.319 18.3753 157.995 18.1008 158.512 17.5519C159.03 17.0029 159.288 16.3166 159.288 15.4932C159.288 14.8861 159.146 14.4374 158.855 14.1524C158.56 13.8673 158.043 13.6404 157.309 13.4714C156.464 13.2709 155.868 13.0597 155.53 12.8327C155.192 12.6057 154.928 12.2996 154.743 11.9195C154.559 11.5394 154.469 11.0802 154.469 10.5471C154.469 9.38047 154.886 8.39863 155.725 7.61211C156.564 6.82559 157.599 6.42969 158.84 6.42969C159.262 6.42969 159.631 6.47192 159.948 6.55638C160.265 6.64083 160.592 6.78864 160.925 6.99978C160.724 7.75991 160.592 8.55172 160.523 9.37519H160.048L160.054 8.72063L160.048 8.04496C159.769 7.71768 159.494 7.4907 159.23 7.36929C158.961 7.24788 158.628 7.18454 158.238 7.18454C157.457 7.18454 156.828 7.43791 156.369 7.93939C155.905 8.44086 155.672 9.1007 155.672 9.90834C155.672 10.3465 155.736 10.6949 155.868 10.9482C156 11.2069 156.206 11.4233 156.485 11.5975C156.765 11.7717 157.282 11.9512 158.027 12.1412C158.808 12.3312 159.346 12.5266 159.637 12.7166C159.927 12.9066 160.159 13.1811 160.323 13.5401C160.487 13.899 160.571 14.316 160.571 14.7911C160.571 15.926 160.112 16.9501 159.188 17.8633C158.27 18.7818 157.193 19.2358 155.963 19.2358C155.498 19.2358 155.055 19.1724 154.627 19.0457C154.2 18.919 153.783 18.7343 153.387 18.4915C153.561 17.6997 153.698 16.8023 153.798 15.8099Z" fill="#1C1512"/>
<path d="M112.547 8.3033L109.844 13.4342C110.689 13.45 111.338 13.4606 111.792 13.4606C112.209 13.4606 112.737 13.45 113.371 13.4342L112.547 8.3033ZM113.45 6.55078L115.176 16.8759C115.308 17.6677 115.403 18.1322 115.461 18.2694C115.493 18.3539 115.556 18.4172 115.651 18.4648C115.746 18.5123 116.079 18.5651 116.654 18.6178V19.151C116.079 19.1088 115.408 19.0876 114.659 19.0876C113.925 19.0876 113.27 19.1088 112.684 19.151V18.6178L113.223 18.602C113.582 18.5967 113.814 18.5545 113.92 18.4753C114.025 18.3961 114.078 18.2642 114.078 18.0847C114.078 17.9105 114.041 17.5727 113.962 17.0765L113.497 14.1204H109.475L108.826 15.382C108.182 16.6331 107.807 17.409 107.691 17.7099C107.601 17.9316 107.554 18.0952 107.554 18.1903C107.554 18.3064 107.612 18.3961 107.733 18.4542C107.854 18.5123 108.261 18.5703 108.968 18.6231V19.1563C108.139 19.114 107.495 19.0929 107.036 19.0929C106.529 19.0929 105.98 19.114 105.395 19.1563V18.6231C105.827 18.602 106.091 18.5545 106.181 18.4911C106.276 18.4278 106.529 18.0266 106.941 17.2876L112.69 6.55078H113.45Z" fill="#0C0C0C"/>
<path d="M118.992 7.18995V6.69376C119.631 6.73598 120.117 6.75182 120.46 6.75182C120.861 6.75182 121.346 6.73071 121.927 6.69376C121.584 8.38293 121.193 10.7319 120.755 13.7513C120.56 15.1132 120.465 15.9737 120.465 16.3432C120.465 16.9291 120.66 17.3989 121.051 17.7526C121.441 18.1063 121.996 18.2857 122.719 18.2857C123.389 18.2857 124.07 18.0851 124.746 17.6787C125.427 17.2775 126.05 16.6757 126.615 15.8839C126.931 13.8886 127.269 11.5343 127.628 8.82634C127.702 8.27736 127.739 7.91841 127.739 7.73893C127.739 7.53834 127.686 7.41166 127.586 7.34831C127.486 7.28497 127.069 7.23218 126.335 7.18467V6.68848C126.915 6.73071 127.67 6.74654 128.584 6.74654C129.027 6.74654 129.645 6.72543 130.442 6.68848V7.18467C129.845 7.2269 129.507 7.26913 129.428 7.30608C129.349 7.34303 129.275 7.41166 129.217 7.49611C129.159 7.58585 129.096 7.81283 129.022 8.17706L128.547 11.2493L127.929 15.3455C127.697 16.9133 127.581 17.837 127.581 18.1168C127.581 18.2857 127.623 18.4019 127.707 18.4599C127.792 18.518 128.04 18.5602 128.446 18.5919L129.038 18.6447L128.974 19.1409C128.436 19.0986 127.945 19.0775 127.491 19.0775C127.026 19.0775 126.567 19.0986 126.118 19.1409V19.0723C126.261 18.291 126.388 17.552 126.493 16.8552C125.627 17.7579 124.846 18.3966 124.144 18.7661C123.447 19.1356 122.772 19.3203 122.128 19.3203C121.23 19.3203 120.491 19.0406 119.911 18.481C119.436 18.0271 119.193 17.3884 119.193 16.5702C119.193 16.2957 119.214 15.9526 119.261 15.5408C119.309 15.1291 119.473 14.0206 119.752 12.2153C120.159 9.66565 120.359 8.20874 120.359 7.85506C120.359 7.62808 120.307 7.475 120.201 7.4011C120.101 7.34303 119.7 7.26913 118.992 7.18995Z" fill="#0C0C0C"/>
<path d="M132.152 19.1563V18.639L132.759 18.5968C133.15 18.5704 133.388 18.5176 133.483 18.4437C133.578 18.3698 133.646 18.2537 133.694 18.09C133.81 17.7258 134.063 16.2108 134.449 13.5345C134.749 11.4336 135.019 9.4066 135.256 7.44821C133.715 7.46405 132.833 7.49044 132.622 7.51683C132.411 7.5485 132.258 7.61713 132.163 7.72798C132.02 7.88634 131.888 8.26113 131.767 8.85762L131.609 9.57552H131.176L131.387 7.61185C131.403 7.37431 131.413 7.06815 131.419 6.69336C133.134 6.73559 134.581 6.75142 135.774 6.75142C136.908 6.75142 138.513 6.73031 140.582 6.69336C140.424 7.44821 140.282 8.40893 140.155 9.57552H139.706L139.764 8.16611C139.764 7.88106 139.664 7.69631 139.458 7.61185C139.257 7.52739 138.313 7.4746 136.629 7.44821C135.615 13.9515 135.114 17.483 135.114 18.0478C135.114 18.2748 135.177 18.4226 135.309 18.4965C135.441 18.5651 135.9 18.6179 136.687 18.6443L136.623 19.1616C135.879 19.1194 135.119 19.1035 134.354 19.1035C133.556 19.093 132.823 19.1141 132.152 19.1563Z" fill="#0C0C0C"/>
<path d="M142.32 14.3472C142.32 15.3502 142.452 16.142 142.71 16.7174C142.969 17.2927 143.365 17.7467 143.903 18.0793C144.436 18.4118 145.07 18.5754 145.798 18.5754C147.387 18.5754 148.57 17.8206 149.356 16.3056C150.079 14.9226 150.438 13.2598 150.438 11.3225C150.438 10.346 150.306 9.57003 150.042 8.98937C149.778 8.40872 149.393 7.96003 148.881 7.64859C148.369 7.33715 147.741 7.17879 146.986 7.17879C146.057 7.17879 145.265 7.42688 144.611 7.91252C143.956 8.40344 143.412 9.22691 142.974 10.3935C142.541 11.5601 142.32 12.8745 142.32 14.3472ZM145.455 19.3303C144.336 19.3303 143.47 19.1508 142.863 18.7972C142.256 18.4435 141.781 17.9156 141.433 17.2188C141.084 16.522 140.91 15.6299 140.91 14.5373C140.91 12.3941 141.47 10.5202 142.589 8.92075C143.708 7.31603 145.334 6.51367 147.456 6.51367C148.902 6.51367 150 6.93069 150.755 7.75944C151.504 8.58819 151.885 9.77062 151.885 11.3067C151.885 12.79 151.584 14.1678 150.982 15.4346C150.38 16.7015 149.599 17.6675 148.633 18.3326C147.667 18.9977 146.611 19.3303 145.455 19.3303Z" fill="#0C0C0C"/>
<path d="M153.688 15.8997H154.169C154.158 16.3009 154.153 16.7021 154.153 17.0927L154.169 17.647C154.528 17.9373 154.881 18.1485 155.24 18.2751C155.594 18.4018 155.974 18.4652 156.38 18.4652C157.209 18.4652 157.885 18.1907 158.402 17.6417C158.919 17.0927 159.178 16.4065 159.178 15.583C159.178 14.976 159.036 14.5273 158.745 14.2422C158.45 13.9572 157.938 13.7302 157.199 13.5613C156.354 13.3607 155.758 13.1495 155.42 12.9226C155.082 12.6956 154.818 12.3894 154.633 12.0094C154.448 11.6293 154.359 11.17 154.359 10.6369C154.359 9.47031 154.776 8.49376 155.615 7.70195C156.449 6.91543 157.489 6.51953 158.729 6.51953C159.152 6.51953 159.521 6.56176 159.838 6.64622C160.155 6.73068 160.482 6.87848 160.814 7.08963C160.614 7.84976 160.482 8.64156 160.413 9.46503H159.938L159.949 8.81048L159.938 8.13481C159.658 7.80753 159.384 7.58055 159.12 7.45914C158.851 7.33773 158.518 7.27438 158.128 7.27438C157.346 7.27438 156.718 7.52776 156.259 8.02923C155.794 8.53071 155.567 9.19054 155.567 9.99818C155.567 10.4363 155.631 10.7847 155.763 11.0434C155.895 11.302 156.101 11.5184 156.38 11.6926C156.66 11.8668 157.177 12.0516 157.922 12.2363C158.703 12.4264 159.241 12.6217 159.537 12.8117C159.827 13.007 160.06 13.2762 160.223 13.6352C160.387 13.9889 160.471 14.4112 160.471 14.8862C160.471 16.0211 160.012 17.0452 159.088 17.9584C158.17 18.8769 157.093 19.3309 155.863 19.3309C155.399 19.3309 154.955 19.2675 154.528 19.1408C154.1 19.0142 153.683 18.8294 153.287 18.5866C153.451 17.7895 153.588 16.8921 153.688 15.8997Z" fill="#0C0C0C"/>
<path d="M83.9219 40.8731V40.3453L84.4286 40.3083C84.7612 40.2925 84.9723 40.2397 85.0621 40.1658C85.1518 40.0866 85.2257 39.9019 85.2891 39.6115C85.4474 38.9148 85.743 37.1306 86.1706 34.2537C86.6034 31.3768 86.8199 29.8038 86.8199 29.5293C86.8199 29.297 86.7512 29.1386 86.614 29.0542C86.4768 28.975 86.0597 28.9117 85.3682 28.8694V28.3891C86.4556 28.4419 87.1788 28.4682 87.5272 28.4682C87.865 28.4682 88.3507 28.4524 88.9841 28.426C89.5753 28.3943 90.0135 28.3838 90.2932 28.3838C91.0323 28.3838 91.6024 28.4841 91.993 28.69C92.3836 28.8958 92.6898 29.2073 92.9167 29.6296C93.1385 30.0519 93.2546 30.5586 93.2546 31.1498C93.2546 31.9047 93.0751 32.6437 92.7109 33.3669C92.3466 34.0953 91.8821 34.6496 91.3067 35.0402C90.7314 35.4308 90.119 35.6209 89.4539 35.6209C88.963 35.6209 88.4879 35.4836 88.0181 35.2091V34.6549C88.4774 34.8554 88.8733 34.9505 89.2111 34.9505C90.0029 34.9505 90.6364 34.6126 91.1167 33.937C91.5971 33.2613 91.8399 32.4167 91.8399 31.4032C91.8399 30.6431 91.6446 30.0624 91.254 29.6612C90.8633 29.26 90.288 29.0595 89.5384 29.0595C89.2322 29.0595 88.8099 29.107 88.2609 29.2073C87.807 31.7991 87.39 34.3856 87.0046 36.9564C86.7882 38.3922 86.6826 39.3054 86.6826 39.6907C86.6826 39.9124 86.746 40.0602 86.8674 40.1288C86.9888 40.1975 87.4691 40.2661 88.3085 40.34V40.8679C87.1524 40.8256 86.3026 40.8045 85.7536 40.8045C85.1624 40.8098 84.5553 40.8309 83.9219 40.8731Z" fill="#1C1512"/>
<path d="M93.6289 40.8726V40.3552L94.1251 40.3289C94.4999 40.313 94.7269 40.2655 94.8166 40.1916C94.9011 40.1177 94.9802 39.933 95.0489 39.6373C95.1703 39.0936 95.4712 37.2936 95.9515 34.232C96.3527 31.6454 96.5533 30.1041 96.5533 29.6079C96.5533 29.3598 96.4847 29.1961 96.3421 29.1064C96.2049 29.0167 95.7773 28.9533 95.0594 28.9058V28.4043C96.1838 28.4466 96.9914 28.4677 97.4823 28.4677C97.873 28.4677 98.3692 28.4518 98.9709 28.4149C99.3879 28.3938 99.7258 28.3779 99.9897 28.3779C100.956 28.3779 101.668 28.5996 102.128 29.043C102.587 29.4865 102.814 30.0829 102.814 30.8272C102.814 31.3234 102.682 31.8302 102.418 32.3528C102.154 32.8701 101.795 33.3029 101.346 33.6461C100.892 33.9892 100.269 34.2637 99.4671 34.4695C100.349 36.0267 101.188 37.4361 101.98 38.6977C102.529 39.5634 102.877 40.0491 103.03 40.1599C103.152 40.2497 103.389 40.3077 103.743 40.3447V40.862C103.268 40.8198 102.872 40.7987 102.55 40.7987C102.249 40.7987 101.932 40.8198 101.594 40.862C101.119 39.8907 100.507 38.7611 99.7522 37.4573C98.9973 36.1587 98.3269 35.0818 97.7463 34.232V34.0472C98.0841 34.0947 98.3269 34.1159 98.4747 34.1159C98.9709 34.1159 99.4619 33.9733 99.9528 33.6936C100.444 33.4085 100.813 33.039 101.072 32.5745C101.325 32.11 101.452 31.6138 101.452 31.0912C101.452 30.4472 101.278 29.9457 100.929 29.5867C100.581 29.2278 100.048 29.0483 99.3299 29.0483C98.9445 29.0483 98.5064 29.1064 98.0049 29.2172C97.6618 31.1598 97.2501 33.7675 96.7644 37.0402C96.5375 38.5605 96.4266 39.479 96.4266 39.801C96.4266 40.0174 96.5005 40.1547 96.6536 40.2233C96.7381 40.2602 97.134 40.3077 97.8466 40.3658L97.7832 40.8831C97.0601 40.8409 96.4477 40.8198 95.9462 40.8198C95.4131 40.8092 94.6424 40.8303 93.6289 40.8726Z" fill="#1C1512"/>
<path d="M106.628 36.0636C106.628 37.0666 106.76 37.8584 107.019 38.4338C107.277 39.0091 107.673 39.4631 108.212 39.7957C108.745 40.1282 109.378 40.2971 110.107 40.2971C111.696 40.2971 112.878 39.5423 113.665 38.0273C114.383 36.6443 114.747 34.9815 114.747 33.0442C114.747 32.0677 114.615 31.2917 114.351 30.7111C114.087 30.1304 113.702 29.6817 113.19 29.3703C112.678 29.0588 112.049 28.9005 111.295 28.9005C110.365 28.9005 109.568 29.1433 108.919 29.6342C108.265 30.1251 107.721 30.9486 107.283 32.1152C106.85 33.2765 106.628 34.5909 106.628 36.0636ZM109.764 41.0467C108.645 41.0467 107.779 40.8672 107.172 40.5136C106.565 40.1546 106.09 39.632 105.741 38.9352C105.393 38.2384 105.219 37.3463 105.219 36.2537C105.219 34.1105 105.778 32.2366 106.897 30.6371C108.016 29.0324 109.642 28.2354 111.764 28.2354C113.211 28.2354 114.309 28.6524 115.063 29.4811C115.818 30.3099 116.193 31.4923 116.193 33.0284C116.193 34.5117 115.892 35.8842 115.29 37.151C114.689 38.4179 113.907 39.3839 112.947 40.049C111.981 40.7141 110.92 41.0467 109.764 41.0467Z" fill="#1C1512"/>
<path d="M117.129 40.8731V40.3453L117.636 40.3083C117.968 40.2925 118.179 40.2397 118.269 40.1658C118.359 40.0866 118.433 39.9019 118.496 39.6115C118.654 38.9148 118.95 37.1306 119.378 34.2537C119.81 31.3768 120.027 29.8038 120.027 29.5293C120.027 29.297 119.958 29.1386 119.821 29.0542C119.684 28.975 119.267 28.9117 118.575 28.8694V28.3891C119.663 28.4419 120.386 28.4682 120.734 28.4682C121.072 28.4682 121.558 28.4524 122.191 28.426C122.782 28.3943 123.221 28.3838 123.5 28.3838C124.239 28.3838 124.804 28.4841 125.2 28.69C125.591 28.8958 125.897 29.2073 126.124 29.6296C126.345 30.0519 126.456 30.5586 126.456 31.1498C126.456 31.9047 126.277 32.6437 125.913 33.3669C125.548 34.0953 125.084 34.6496 124.508 35.0402C123.938 35.4308 123.321 35.6209 122.656 35.6209C122.165 35.6209 121.69 35.4836 121.22 35.2091V34.6549C121.679 34.8554 122.075 34.9505 122.413 34.9505C123.205 34.9505 123.838 34.6126 124.318 33.937C124.799 33.2613 125.042 32.4167 125.042 31.4032C125.042 30.6431 124.846 30.0624 124.456 29.6612C124.065 29.26 123.49 29.0595 122.74 29.0595C122.434 29.0595 122.006 29.107 121.463 29.2073C121.009 31.7991 120.592 34.3856 120.206 36.9564C119.99 38.3922 119.884 39.3054 119.884 39.6907C119.884 39.9124 119.948 40.0602 120.069 40.1288C120.191 40.1975 120.671 40.2661 121.51 40.34V40.8679C120.354 40.8256 119.504 40.8045 118.955 40.8045C118.375 40.8098 117.768 40.8309 117.129 40.8731Z" fill="#1C1512"/>
<path d="M126.672 40.8725L126.735 40.3711C127.374 40.3499 127.738 40.2972 127.838 40.2233C127.933 40.1494 128.023 39.9752 128.097 39.7059C128.213 39.2837 128.498 37.5522 128.958 34.5064C129.417 31.4607 129.644 29.7768 129.644 29.4495C129.644 29.2225 129.586 29.08 129.464 29.0272C129.385 28.9902 128.979 28.9427 128.25 28.8794L128.329 28.4043C129.111 28.4465 129.77 28.4676 130.298 28.4676C130.879 28.4676 131.597 28.4465 132.441 28.4043V28.8794C131.787 28.9005 131.407 28.9374 131.307 28.9902C131.212 29.0377 131.132 29.1222 131.069 29.2383C131.006 29.3545 130.895 29.8982 130.731 30.8642L130.161 34.707L129.543 38.8983C129.48 39.3734 129.448 39.669 129.448 39.801C129.448 40.0016 129.496 40.1282 129.591 40.1863C129.718 40.2549 130.135 40.3183 130.837 40.3711L130.779 40.8725C129.976 40.8303 129.327 40.8092 128.847 40.8092C128.424 40.8092 127.696 40.8303 126.672 40.8725Z" fill="#1C1512"/>
<path d="M132.621 40.8884L132.679 40.4608L132.954 40.3552C133.149 40.2708 133.334 40.1916 133.503 40.1071C133.825 38.6027 134.242 36.1217 134.754 32.6589C135.018 30.8694 135.15 29.8295 135.15 29.5339C135.15 29.3175 135.086 29.175 134.965 29.1011C134.843 29.0272 134.421 28.9638 133.698 28.9058L133.767 28.4043C134.69 28.4465 135.498 28.4676 136.189 28.4676L139.731 28.4043C140.307 28.4043 140.808 28.4254 141.246 28.4729C141.114 29.2225 141.025 30.0988 140.972 31.107H140.523C140.492 30.0565 140.428 29.4759 140.333 29.365C140.201 29.2225 139.431 29.1486 138.026 29.1486C137.583 29.1486 137.108 29.1591 136.601 29.1855C136.321 30.7428 136.063 32.3527 135.82 34.0103C136.517 34.0366 137.14 34.0525 137.689 34.0525C138.333 34.0525 139.061 34.005 139.885 33.9152L139.964 34.0103C139.858 34.2795 139.758 34.5698 139.658 34.8865C138.913 34.8179 137.968 34.7809 136.833 34.7809L135.704 34.7968C135.34 37.0983 135.097 38.8086 134.97 39.9382C135.841 40.0385 136.754 40.086 137.699 40.086C138.322 40.086 138.887 40.0543 139.388 39.991C139.557 39.9699 139.679 39.9276 139.747 39.8696C139.816 39.8115 139.879 39.7112 139.932 39.5634C139.974 39.4578 140.112 38.9089 140.349 37.9165H140.824L140.676 38.9089C140.581 39.4842 140.507 40.123 140.449 40.8092C140.038 40.8673 139.621 40.8989 139.193 40.8989C138.913 40.8989 138.502 40.8884 137.953 40.8725C136.775 40.8303 135.857 40.8092 135.208 40.8092C134.384 40.8092 133.524 40.8356 132.621 40.8884Z" fill="#1C1512"/>
<path d="M144.572 39.8751C145.464 40.0546 146.245 40.1443 146.916 40.1443C148.009 40.1443 148.901 39.9067 149.587 39.4317C150.273 38.9566 150.864 38.1542 151.355 37.0299C151.846 35.9002 152.094 34.6809 152.094 33.3612C152.094 32.4163 151.946 31.6351 151.646 31.0227C151.345 30.4104 150.912 29.9406 150.336 29.6186C149.761 29.2966 149.038 29.1382 148.151 29.1382C147.491 29.1382 146.816 29.1646 146.135 29.2174C145.997 29.9512 145.776 31.3395 145.469 33.3665L145.353 34.1372C144.957 36.7607 144.699 38.6715 144.572 39.8751ZM142.387 40.8569V40.4188C142.651 40.3713 142.83 40.3079 142.936 40.2235C143.036 40.139 143.126 40.0018 143.194 39.817C143.263 39.6323 143.4 38.8827 143.606 37.5683L144.118 34.1424L144.224 33.3717C144.53 31.1811 144.683 29.9142 144.683 29.5711C144.683 29.3072 144.588 29.1277 144.398 29.0379C144.298 28.9957 143.918 28.9482 143.263 28.8954V28.3992C144.05 28.452 144.773 28.4784 145.433 28.4784C145.802 28.4784 146.293 28.4679 146.905 28.4415C147.76 28.4045 148.357 28.3887 148.695 28.3887C149.898 28.3887 150.833 28.5629 151.492 28.9165C152.152 29.2702 152.659 29.7928 153.013 30.479C153.366 31.1705 153.541 32.0574 153.541 33.1395C153.541 35.2773 152.839 37.1354 151.44 38.7085C150.146 40.1654 148.51 40.8991 146.53 40.8991C146.256 40.8991 145.855 40.8886 145.332 40.8622C144.604 40.8252 144.023 40.8094 143.59 40.8094C143.231 40.8094 142.83 40.8252 142.387 40.8569Z" fill="#1C1512"/>
<path d="M161.216 30.0195L158.514 35.1504C159.358 35.1662 160.008 35.1768 160.462 35.1768C160.879 35.1768 161.407 35.1662 162.04 35.1504L161.216 30.0195ZM162.114 28.267L163.84 38.5868C163.972 39.3786 164.067 39.8431 164.125 39.9804C164.157 40.0596 164.22 40.1282 164.315 40.1757C164.41 40.2232 164.743 40.276 165.318 40.3288V40.8619C164.737 40.8197 164.072 40.7986 163.323 40.7986C162.589 40.7986 161.934 40.8197 161.348 40.8619V40.3288L161.887 40.3129C162.246 40.3077 162.478 40.2654 162.584 40.1862C162.689 40.1071 162.742 39.9751 162.742 39.7956C162.742 39.6214 162.705 39.2836 162.626 38.7874L162.161 35.8313H158.139L157.49 37.0929C156.846 38.344 156.471 39.12 156.355 39.4208C156.265 39.6425 156.218 39.8062 156.218 39.9012C156.218 40.0173 156.276 40.1071 156.397 40.1651C156.513 40.2232 156.925 40.2813 157.632 40.3341V40.8672C156.804 40.825 156.159 40.8039 155.7 40.8039C155.194 40.8039 154.65 40.825 154.059 40.8672V40.3341C154.491 40.3129 154.755 40.2654 154.845 40.2021C154.94 40.1387 155.194 39.7376 155.6 38.9985L161.348 28.2617H162.114V28.267Z" fill="#1C1512"/>
<path d="M168.806 39.8751C169.699 40.0546 170.48 40.1443 171.15 40.1443C172.243 40.1443 173.135 39.9067 173.821 39.4317C174.507 38.9566 175.099 38.1542 175.59 37.0299C176.08 35.9002 176.329 34.6809 176.329 33.3612C176.329 32.4163 176.181 31.6351 175.88 31.0227C175.579 30.4104 175.146 29.9406 174.571 29.6186C173.995 29.2966 173.272 29.1382 172.385 29.1382C171.726 29.1382 171.05 29.1646 170.369 29.2174C170.232 29.9512 170.01 31.3395 169.704 33.3665L169.588 34.1372C169.192 36.7607 168.933 38.6715 168.806 39.8751ZM166.621 40.8569V40.4188C166.885 40.3713 167.065 40.3079 167.17 40.2235C167.27 40.139 167.36 40.0018 167.429 39.817C167.497 39.6323 167.635 38.8827 167.84 37.5683L168.352 34.1424L168.458 33.3717C168.764 31.1811 168.917 29.9142 168.917 29.5711C168.917 29.3072 168.822 29.1277 168.632 29.0379C168.532 28.9957 168.152 28.9482 167.497 28.8954V28.3992C168.284 28.452 169.007 28.4784 169.667 28.4784C170.036 28.4784 170.527 28.4679 171.14 28.4415C171.995 28.4045 172.591 28.3887 172.929 28.3887C174.133 28.3887 175.067 28.5629 175.727 28.9165C176.387 29.2702 176.893 29.7928 177.247 30.479C177.601 31.1705 177.775 32.0574 177.775 33.1395C177.775 35.2773 177.073 37.1354 175.674 38.7085C174.381 40.1654 172.744 40.8991 170.765 40.8991C170.49 40.8991 170.089 40.8886 169.567 40.8622C168.838 40.8252 168.257 40.8094 167.825 40.8094C167.46 40.8094 167.065 40.8252 166.621 40.8569Z" fill="#1C1512"/>
<path d="M179.291 40.8884L179.349 40.4608L179.624 40.3552C179.819 40.2708 180.004 40.1916 180.178 40.1071C180.5 38.6027 180.917 36.1217 181.429 32.6589C181.693 30.8694 181.825 29.8295 181.825 29.5339C181.825 29.3175 181.761 29.175 181.64 29.1011C181.519 29.0272 181.096 28.9638 180.373 28.9058L180.442 28.4043C181.366 28.4465 182.173 28.4676 182.865 28.4676L186.407 28.4043C186.982 28.4043 187.484 28.4254 187.922 28.4729C187.79 29.2225 187.7 30.0988 187.647 31.107H187.198C187.167 30.0565 187.103 29.4759 187.008 29.365C186.876 29.2225 186.106 29.1486 184.702 29.1486C184.258 29.1486 183.783 29.1591 183.276 29.1855C182.997 30.7428 182.738 32.3527 182.495 34.0103C183.192 34.0366 183.815 34.0525 184.364 34.0525C185.008 34.0525 185.736 34.005 186.56 33.9152L186.639 34.0103C186.533 34.2795 186.433 34.5698 186.333 34.8865C185.588 34.8179 184.644 34.7809 183.509 34.7809L182.379 34.7968C182.015 37.0983 181.772 38.8086 181.645 39.9382C182.516 40.0385 183.43 40.086 184.374 40.086C184.997 40.086 185.562 40.0543 186.064 39.991C186.232 39.9699 186.354 39.9276 186.423 39.8696C186.491 39.8115 186.554 39.7112 186.607 39.5634C186.649 39.4578 186.787 38.9089 187.024 37.9165H187.499L187.352 38.9089C187.257 39.4842 187.183 40.123 187.125 40.8092C186.713 40.8673 186.296 40.8989 185.868 40.8989C185.588 40.8989 185.177 40.8884 184.628 40.8725C183.451 40.8303 182.532 40.8092 181.883 40.8092C181.054 40.8092 180.194 40.8356 179.291 40.8884Z" fill="#1C1512"/>
<path d="M189.783 37.6156H190.264C190.253 38.0167 190.248 38.4179 190.248 38.8085L190.264 39.3575C190.623 39.6478 190.976 39.859 191.335 39.991C191.689 40.1177 192.069 40.181 192.476 40.181C193.304 40.181 193.98 39.9065 194.497 39.3575C195.015 38.8085 195.273 38.1223 195.273 37.2988C195.273 36.6918 195.131 36.2431 194.84 35.9581C194.545 35.673 194.027 35.446 193.294 35.2771C192.449 35.0765 191.853 34.8654 191.515 34.6384C191.177 34.4114 190.913 34.1052 190.728 33.7252C190.544 33.3451 190.454 32.8859 190.454 32.3527C190.454 31.1861 190.871 30.2096 191.705 29.4178C192.544 28.6313 193.579 28.2354 194.819 28.2354C195.242 28.2354 195.611 28.2776 195.928 28.362C196.245 28.4465 196.572 28.5943 196.904 28.8054C196.704 29.5656 196.572 30.3574 196.503 31.1809H196.028L196.039 30.5263L196.028 29.8506C195.748 29.5233 195.474 29.2964 195.21 29.175C194.941 29.0535 194.608 28.9902 194.217 28.9902C193.436 28.9902 192.813 29.2436 192.349 29.7451C191.884 30.2465 191.652 30.9064 191.652 31.714C191.652 32.1521 191.715 32.5005 191.847 32.7539C191.979 33.0126 192.185 33.229 192.465 33.4032C192.745 33.5774 193.262 33.7621 194.006 33.9469C194.788 34.1369 195.326 34.3322 195.622 34.5223C195.912 34.7123 196.144 34.9868 196.308 35.3457C196.471 35.6994 196.556 36.1217 196.556 36.5968C196.556 37.7317 196.097 38.7558 195.178 39.669C194.26 40.5875 193.183 41.0414 191.953 41.0414C191.488 41.0414 191.045 40.9781 190.617 40.8514C190.19 40.7247 189.773 40.5399 189.377 40.2971C189.551 39.5053 189.688 38.608 189.783 37.6156Z" fill="#1C1512"/>
<path d="M172.903 15.2238L172.533 15.1657L172.644 13.3445C172.913 13.0701 173.182 12.8747 173.462 12.7586C173.737 12.6425 174.296 12.5211 175.13 12.3891C176.228 12.2149 176.951 12.0671 177.294 11.9404C177.637 11.819 177.891 11.6501 178.044 11.4389C178.197 11.2278 178.276 10.9955 178.276 10.7422C178.276 10.5416 178.234 10.3726 178.15 10.2301C178.065 10.0876 177.912 9.9398 177.685 9.79727L178.023 9.46472C178.35 9.68642 178.567 9.90285 178.683 10.114C178.799 10.3251 178.852 10.5944 178.852 10.9216C178.852 11.3386 178.751 11.7134 178.551 12.0618C178.35 12.4049 178.054 12.6742 177.669 12.8695C177.41 13.0014 176.714 13.1703 175.579 13.3657C176.001 13.5187 176.302 13.7141 176.476 13.9621C176.656 14.205 176.745 14.5059 176.745 14.8542C176.745 15.8678 176.233 16.8232 175.209 17.7206C174.037 18.7446 172.67 19.2514 171.113 19.2514C169.92 19.2514 168.97 18.9135 168.273 18.2379C167.571 17.5622 167.223 16.7282 167.223 15.7305C167.223 15.1604 167.334 14.6325 167.56 14.1469C167.787 13.6613 168.099 13.2601 168.495 12.9486C168.891 12.6319 169.598 12.2888 170.622 11.914C170.163 11.6976 169.841 11.4389 169.646 11.1328C169.45 10.8266 169.355 10.4571 169.355 10.0243C169.355 9.24301 169.741 8.4776 170.506 7.73859C171.409 6.87289 172.311 6.44531 173.214 6.44531C173.515 6.44531 173.773 6.48226 174 6.55616C174.222 6.63007 174.476 6.76731 174.761 6.96262C174.602 7.6858 174.47 8.38787 174.365 9.06354L173.979 9.05298C173.979 8.60429 173.974 8.25062 173.964 7.99196C173.731 7.77026 173.51 7.61718 173.298 7.52744C173.087 7.4377 172.839 7.39547 172.559 7.39547C171.963 7.39547 171.477 7.59606 171.097 7.99724C170.717 8.39842 170.527 8.89462 170.527 9.49111C170.527 10.077 170.717 10.5416 171.097 10.8847C171.477 11.2331 172.037 11.402 172.776 11.3914C172.649 11.687 172.544 11.9879 172.459 12.2941C172.153 12.2466 171.921 12.2255 171.757 12.2255C171.192 12.2255 170.659 12.368 170.158 12.653C169.651 12.9381 169.271 13.3234 169.012 13.7985C168.753 14.2789 168.622 14.8015 168.622 15.3768C168.622 16.2373 168.917 16.9499 169.508 17.5253C170.1 18.1006 170.891 18.3857 171.889 18.3857C172.982 18.3857 173.874 18.0742 174.56 17.4461C175.246 16.8179 175.589 16.1 175.589 15.2871C175.589 14.8015 175.463 14.4267 175.215 14.1522C174.966 13.883 174.618 13.7457 174.175 13.7457C173.932 13.7457 173.726 13.7932 173.557 13.8882C173.388 13.9833 173.256 14.1152 173.166 14.2789C173.093 14.3844 173.008 14.7012 172.903 15.2238Z" fill="#186AAC"/>
<path d="M172.903 15.2238L172.533 15.1657L172.644 13.3445C172.913 13.0701 173.182 12.8747 173.462 12.7586C173.737 12.6425 174.296 12.5211 175.13 12.3891C176.228 12.2149 176.951 12.0671 177.294 11.9404C177.637 11.819 177.891 11.6501 178.044 11.4389C178.197 11.2278 178.276 10.9955 178.276 10.7422C178.276 10.5416 178.234 10.3726 178.15 10.2301C178.065 10.0876 177.912 9.9398 177.685 9.79727L178.023 9.46472C178.35 9.68642 178.567 9.90285 178.683 10.114C178.799 10.3251 178.852 10.5944 178.852 10.9216C178.852 11.3386 178.751 11.7134 178.551 12.0618C178.35 12.4049 178.054 12.6742 177.669 12.8695C177.41 13.0014 176.714 13.1703 175.579 13.3657C176.001 13.5187 176.302 13.7141 176.476 13.9621C176.656 14.205 176.745 14.5059 176.745 14.8542C176.745 15.8678 176.233 16.8232 175.209 17.7206C174.037 18.7446 172.67 19.2514 171.113 19.2514C169.92 19.2514 168.97 18.9135 168.273 18.2379C167.571 17.5622 167.223 16.7282 167.223 15.7305C167.223 15.1604 167.334 14.6325 167.56 14.1469C167.787 13.6613 168.099 13.2601 168.495 12.9486C168.891 12.6319 169.598 12.2888 170.622 11.914C170.163 11.6976 169.841 11.4389 169.646 11.1328C169.45 10.8266 169.355 10.4571 169.355 10.0243C169.355 9.24301 169.741 8.4776 170.506 7.73859C171.409 6.87289 172.311 6.44531 173.214 6.44531C173.515 6.44531 173.773 6.48226 174 6.55616C174.222 6.63007 174.476 6.76731 174.761 6.96262C174.602 7.6858 174.47 8.38787 174.365 9.06354L173.979 9.05298C173.979 8.60429 173.974 8.25062 173.964 7.99196C173.731 7.77026 173.51 7.61718 173.298 7.52744C173.087 7.4377 172.839 7.39547 172.559 7.39547C171.963 7.39547 171.477 7.59606 171.097 7.99724C170.717 8.39842 170.527 8.89462 170.527 9.49111C170.527 10.077 170.717 10.5416 171.097 10.8847C171.477 11.2331 172.037 11.402 172.776 11.3914C172.649 11.687 172.544 11.9879 172.459 12.2941C172.153 12.2466 171.921 12.2255 171.757 12.2255C171.192 12.2255 170.659 12.368 170.158 12.653C169.651 12.9381 169.271 13.3234 169.012 13.7985C168.753 14.2789 168.622 14.8015 168.622 15.3768C168.622 16.2373 168.917 16.9499 169.508 17.5253C170.1 18.1006 170.891 18.3857 171.889 18.3857C172.982 18.3857 173.874 18.0742 174.56 17.4461C175.246 16.8179 175.589 16.1 175.589 15.2871C175.589 14.8015 175.463 14.4267 175.215 14.1522C174.966 13.883 174.618 13.7457 174.175 13.7457C173.932 13.7457 173.726 13.7932 173.557 13.8882C173.388 13.9833 173.256 14.1152 173.166 14.2789C173.093 14.3844 173.008 14.7012 172.903 15.2238Z" stroke="#186AAC" stroke-miterlimit="10"/>
</svg>
