<svg width="42" height="25" viewBox="0 0 42 25" fill="none" xmlns="http://www.w3.org/2000/svg">
<path d="M18.9193 1.48535L0 22.6801H2.51121L18.6353 4.81186V22.7369H20.459V1.48535H18.9193Z" fill="#0072BF"/>
<path d="M41.7845 7.69015C41.5799 6.80384 41.2163 5.94878 40.7078 5.15337C40.1937 4.35229 39.5062 3.64778 38.6625 3.05975C38.0773 2.63932 37.4268 2.28991 36.728 2.02004C36.0036 1.74165 35.2508 1.59961 34.4866 1.59961H27.6774V22.6836H29.6119V3.5512H34.8161C35.3871 3.5512 35.9837 3.70744 36.5831 4.01708C37.2109 4.34092 37.7847 4.77272 38.2904 5.30109C38.8017 5.83515 39.225 6.43739 39.5517 7.09076C39.867 7.72424 40.0431 8.35205 40.0744 8.96281C40.1084 9.52811 40.0999 10.0877 40.0488 10.6246C40.0005 11.1189 39.8641 11.6019 39.6426 12.0592L39.6369 12.0677C39.0858 13.2523 38.3358 14.1699 37.4069 14.7948C36.4751 15.4226 35.3673 15.7863 34.1173 15.8715L33.5463 15.9084V17.7009L34.0889 17.7634C34.6542 17.8288 35.2479 17.7805 35.8559 17.6214C36.4297 17.4708 36.9581 17.272 37.4325 17.0305C38.333 16.6044 39.117 16.0362 39.7562 15.3346C40.3897 14.6414 40.8982 13.8688 41.2703 13.0364C41.6424 12.2012 41.8754 11.3149 41.9606 10.4031C42.0487 9.4855 41.989 8.57362 41.7845 7.69015Z" fill="#FFC000"/>
<path d="M23.3395 0V24.2599" stroke="#0D0A0E" stroke-width="2" stroke-miterlimit="10"/>
</svg>
