<svg width="753" height="387" viewBox="0 0 753 387" fill="none" xmlns="http://www.w3.org/2000/svg">
<path opacity="0.24" d="M661.017 387C670.725 387 678.657 378.797 678.776 368.691C679.486 318.045 683.393 243.264 592.232 222.578C518.357 205.815 562.161 68.4991 363.266 77.4157C220.487 83.8356 258.49 209.738 147.44 220.2C73.5648 227.215 72.9728 324.94 75.8142 369.642C76.4061 379.391 84.2199 387 93.5727 387H661.017Z" fill="#D0D0D0"/>
<path opacity="0.24" d="M730.581 387C742.684 387 752.573 376.759 752.72 364.144C753.606 300.917 758.477 207.562 644.828 181.738C552.728 160.811 607.339 -10.6125 359.378 0.518912C181.377 8.5335 228.755 165.708 90.3105 178.769C-1.78929 187.526 -2.52727 309.526 1.01502 365.331C1.753 377.501 11.4943 387 23.1544 387H730.581Z" fill="#08C2DA"/>
<path d="M348.862 68.9392L353.802 42.9494L360.635 44.2483L367.268 63.248L370.522 46.1275L375.757 47.1224L370.817 73.1121L364.928 71.9929L357.613 51.4323L354.096 69.934L348.862 68.9392ZM389.327 72.1862C391.532 72.6053 393.425 72.1615 395.004 70.8547C396.587 69.5237 397.628 67.5496 398.125 64.9325L398.181 64.6417C398.669 62.073 398.418 59.8911 397.429 58.0961C396.439 56.3011 394.818 55.1894 392.564 54.7611C390.31 54.3327 388.394 54.772 386.815 56.0787C385.24 57.3613 384.204 59.3112 383.707 61.9283L383.652 62.2191C383.154 64.8362 383.437 67.0492 384.499 68.8581C385.561 70.6669 387.171 71.7763 389.327 72.1862ZM398.744 74.9552C395.822 76.986 392.35 77.6191 388.327 76.8545C384.304 76.0899 381.304 74.2392 379.326 71.3022C377.378 68.3457 376.769 64.9409 377.502 61.0878L377.557 60.7971C378.289 56.944 380.15 54.0212 383.14 52.0284C386.135 50.0114 389.571 49.3714 393.448 50.1084C397.374 50.8545 400.354 52.6765 402.39 55.5741C404.425 58.4718 405.075 61.8593 404.338 65.7366L404.282 66.0274C403.541 69.9288 401.695 72.9048 398.744 74.9552Z" fill="white"/>
<path d="M223.673 51.8887L106 130.602L221.912 303.886L339.585 225.173L223.673 51.8887Z" fill="#F5F5F5"/>
<path d="M278.668 216.94L277.41 225.225L218.895 216.835L220.258 208.551L278.668 216.94Z" fill="#D0D0D0"/>
<path d="M249.306 187.471L257.695 188.729L248.362 246.301L239.973 245.042L249.306 187.471Z" fill="#D0D0D0"/>
<path d="M195.404 114.274C195.508 114.379 183.659 122.454 169.082 132.207C154.401 141.959 142.551 149.824 142.446 149.719C142.341 149.615 154.191 141.54 168.768 131.787C183.344 122.035 195.299 114.17 195.404 114.274Z" fill="#D0D0D0"/>
<path d="M238.608 103.364C238.713 103.469 219.103 116.787 194.774 132.936C170.55 149.191 150.73 162.194 150.625 162.089C150.521 161.984 170.131 148.666 194.46 132.517C218.789 116.367 238.608 103.259 238.608 103.364Z" fill="#D0D0D0"/>
<path d="M247.314 116.368C247.418 116.473 227.808 129.791 203.479 145.94C179.255 162.195 159.435 175.198 159.33 175.093C159.226 174.988 178.836 161.67 203.165 145.521C227.494 129.266 247.209 116.263 247.314 116.368Z" fill="#D0D0D0"/>
<path d="M256.019 129.376C256.124 129.48 236.513 142.799 212.184 158.948C187.96 175.202 168.14 188.206 168.036 188.101C167.931 187.996 187.541 174.678 211.87 158.529C236.199 142.274 255.914 129.271 256.019 129.376Z" fill="#D0D0D0"/>
<path d="M264.72 142.272C264.825 142.377 245.215 155.695 220.886 171.844C196.661 188.099 176.842 201.102 176.737 200.997C176.632 200.893 196.242 187.574 220.571 171.425C244.795 155.276 264.615 142.167 264.72 142.272Z" fill="#D0D0D0"/>
<path d="M549.812 169.432L450.967 235.551L548.279 381.029L647.124 314.911L549.812 169.432Z" fill="#F5F5F5"/>
<path d="M596.022 308.032L594.973 315.058L545.791 307.927L546.945 301.006L596.022 308.032Z" fill="#D0D0D0"/>
<path d="M571.276 283.283L578.407 284.332L570.542 332.675L563.516 331.627L571.276 283.283Z" fill="#D0D0D0"/>
<path d="M526.078 221.829C526.183 221.934 516.22 228.751 503.951 236.93C491.682 245.11 481.614 251.716 481.51 251.611C481.405 251.507 491.367 244.69 503.636 236.511C515.906 228.226 525.973 221.725 526.078 221.829Z" fill="#D0D0D0"/>
<path d="M562.36 212.706C562.465 212.811 546.001 224.031 525.657 237.664C505.313 251.297 488.639 262.203 488.639 262.098C488.534 261.993 504.998 250.772 525.447 237.14C545.687 223.507 562.36 212.601 562.36 212.706Z" fill="#D0D0D0"/>
<path d="M569.702 223.614C569.807 223.719 553.343 234.94 532.999 248.572C512.655 262.205 495.981 273.111 495.981 273.006C495.876 272.901 512.34 261.681 532.789 248.048C553.028 234.415 569.597 223.509 569.702 223.614Z" fill="#D0D0D0"/>
<path d="M576.938 234.518C577.042 234.623 560.578 245.844 540.234 259.477C519.89 273.109 503.216 284.015 503.216 283.91C503.111 283.806 519.576 272.585 540.024 258.952C560.264 245.32 576.938 234.413 576.938 234.518Z" fill="#D0D0D0"/>
<path d="M584.278 245.427C584.383 245.532 567.919 256.752 547.575 270.385C527.231 284.018 510.557 294.924 510.557 294.819C510.452 294.714 526.916 283.493 547.365 269.861C567.605 256.228 584.173 245.217 584.278 245.427Z" fill="#D0D0D0"/>
<path d="M460.736 58.2017L352.914 0.537109L268 159.31L375.821 216.975L460.736 58.2017Z" fill="#F5F5F5"/>
<path d="M357.321 167.334L350.505 169.746L333.202 121.717L340.018 119.41L357.321 167.334Z" fill="#D0D0D0"/>
<path d="M367.81 132.939L370.326 139.861L322.717 156.115L320.2 149.299L367.81 132.939Z" fill="#D0D0D0"/>
<path d="M401.783 62.1531C401.679 62.3628 390.772 56.5951 377.35 49.4642C363.927 42.3333 353.125 36.3559 353.23 36.1462C353.335 35.9364 364.241 41.7041 377.664 48.835C390.982 55.9659 401.783 61.9433 401.783 62.1531Z" fill="#D0D0D0"/>
<path d="M427.582 90.6797C427.477 90.8895 409.44 81.3466 387.208 69.3918C364.977 57.5419 346.94 47.7893 347.044 47.5796C347.149 47.3698 365.186 56.9127 387.418 68.8675C409.755 80.7174 427.687 90.47 427.582 90.6797Z" fill="#D0D0D0"/>
<path d="M421.289 102.525C421.185 102.735 403.148 93.1923 380.916 81.2375C358.684 69.3876 340.752 59.5301 340.752 59.4253C340.857 59.2155 358.894 68.7584 381.126 80.7132C403.357 92.5631 421.289 102.421 421.289 102.525Z" fill="#D0D0D0"/>
<path d="M414.892 114.377C414.787 114.587 396.75 105.044 374.518 93.0891C352.287 81.2391 334.354 71.3817 334.354 71.2768C334.459 71.0671 352.496 80.61 374.728 92.5647C397.065 104.52 414.997 114.272 414.892 114.377Z" fill="#D0D0D0"/>
<path d="M408.495 126.332C408.39 126.542 390.353 116.999 368.121 105.044C345.889 93.1942 327.957 83.3368 327.957 83.2319C328.062 83.0222 346.099 92.565 368.331 104.52C390.667 116.37 408.599 126.122 408.495 126.332Z" fill="#D0D0D0"/>
<path d="M306.565 169.637L269.442 360.285L264.618 385.243L512.208 383.985C523.324 383.88 533.181 374.022 536.747 359.446L580.686 179.495C583.413 168.379 577.435 156.844 569.046 156.844L318.52 157.158C312.857 157.053 308.033 162.192 306.565 169.637Z" fill="#FD3535"/>
<g opacity="0.5">
<path opacity="0.5" d="M306.565 169.637L269.442 360.285L264.618 385.243L512.208 383.985C523.324 383.88 533.181 374.022 536.747 359.446L580.686 179.495C583.413 168.379 577.435 156.844 569.046 156.844L318.52 157.158C312.857 157.053 308.033 162.192 306.565 169.637Z" fill="#444C5B"/>
</g>
<path d="M488.402 347.388L462.186 136.187C461.137 127.483 454.216 121.086 446.036 121.086L388.569 121.296C384.27 121.296 380.285 123.078 377.244 126.329L349.978 155.377L190.162 156.216C180.409 156.216 172.859 165.549 174.222 175.931L198.551 371.193C199.6 379.792 206.521 386.293 214.596 386.293L493.121 385.769C524.162 386.398 527.098 377.275 527.098 377.275C491.548 384.93 488.402 347.388 488.402 347.388Z" fill="#FD3535"/>
<path d="M484.419 149.926L495.325 130.316C489.872 120.039 486.726 108.189 486.726 95.7096C486.726 54.8117 519.864 21.6738 560.762 21.6738C601.66 21.6738 634.798 54.8117 634.798 95.7096C634.798 136.608 601.66 169.745 560.762 169.745C540.208 169.745 521.542 161.356 508.224 147.828L484.419 149.926Z" fill="#E9B20D"/>
<path d="M598.352 56.5108L597.644 55.8037L596.937 56.5108L522.616 130.832L521.909 131.539L522.616 132.246L525.941 135.571L526.649 136.279L527.356 135.571L601.677 61.2503L602.384 60.5432L601.677 59.8361L598.352 56.5108Z" fill="white" stroke="white" stroke-width="2"/>
<path d="M561.731 137.157C551.14 137.157 540.443 133.067 532.368 124.992C516.114 108.738 516.114 82.4164 532.368 66.2669C548.623 50.0126 574.944 50.0126 591.094 66.2669C607.348 82.5212 607.348 108.843 591.094 124.992C583.019 133.067 572.323 137.157 561.731 137.157ZM561.731 59.6603C552.503 59.6603 543.275 63.1209 536.353 70.147C522.301 84.1991 522.301 106.955 536.353 121.007C550.406 135.059 573.162 135.059 587.214 121.007C601.266 106.955 601.266 84.1991 587.214 70.147C580.083 63.2258 570.959 59.6603 561.731 59.6603Z" fill="white"/>
</svg>
