<svg width="22" height="17" viewBox="0 0 22 17" fill="none" xmlns="http://www.w3.org/2000/svg">
<path fill-rule="evenodd" clip-rule="evenodd" d="M5.78 2.773C5.83125 2.55312 5.9554 2.35706 6.13224 2.2167C6.30909 2.07635 6.52823 1.99998 6.754 2H15.246C15.4718 1.99998 15.6909 2.07635 15.8678 2.2167C16.0446 2.35706 16.1687 2.55312 16.22 2.773L16.74 5H5.26L5.78 2.773ZM1 7H2C1.372 7.836 1 8.874 1 10V11C1 12.306 1.835 13.418 3 13.83V16C3 16.2652 3.10536 16.5196 3.29289 16.7071C3.48043 16.8946 3.73478 17 4 17H5C5.26522 17 5.51957 16.8946 5.70711 16.7071C5.89464 16.5196 6 16.2652 6 16V14H16V16C16 16.2652 16.1054 16.5196 16.2929 16.7071C16.4804 16.8946 16.7348 17 17 17H18C18.2652 17 18.5196 16.8946 18.7071 16.7071C18.8946 16.5196 19 16.2652 19 16V13.83C19.5851 13.623 20.0916 13.2397 20.4498 12.7329C20.8079 12.226 21.0002 11.6206 21 11V10C21.0016 8.91789 20.6505 7.86473 20 7H21C21.2652 7 21.5196 6.89464 21.7071 6.70711C21.8946 6.51957 22 6.26522 22 6C22 5.73478 21.8946 5.48043 21.7071 5.29289C21.5196 5.10536 21.2652 5 21 5H20C19.7515 5.00009 19.5119 5.09273 19.3279 5.25986C19.144 5.42698 19.0289 5.65662 19.005 5.904L18.974 5.773L18.168 2.318C18.0141 1.65855 17.6415 1.07058 17.111 0.649723C16.5805 0.228865 15.9232 -0.000123869 15.246 5.02686e-08H6.754C6.07682 -0.000123869 5.41952 0.228865 4.88899 0.649723C4.35847 1.07058 3.98595 1.65855 3.832 2.318L3.026 5.773L2.996 5.904C2.97212 5.65645 2.85686 5.42667 2.6727 5.25952C2.48854 5.09237 2.2487 4.99985 2 5H1C0.734784 5 0.48043 5.10536 0.292893 5.29289C0.105357 5.48043 0 5.73478 0 6C0 6.26522 0.105357 6.51957 0.292893 6.70711C0.48043 6.89464 0.734784 7 1 7ZM6 7C5.20435 7 4.44129 7.31607 3.87868 7.87868C3.31607 8.44129 3 9.20435 3 10V11C3 11.2652 3.10536 11.5196 3.29289 11.7071C3.48043 11.8946 3.73478 12 4 12H18C18.2652 12 18.5196 11.8946 18.7071 11.7071C18.8946 11.5196 19 11.2652 19 11V10C19 9.20435 18.6839 8.44129 18.1213 7.87868C17.5587 7.31607 16.7956 7 16 7H6ZM5 9.5C5 9.10218 5.15804 8.72064 5.43934 8.43934C5.72064 8.15804 6.10218 8 6.5 8C6.89782 8 7.27936 8.15804 7.56066 8.43934C7.84196 8.72064 8 9.10218 8 9.5C8 9.89782 7.84196 10.2794 7.56066 10.5607C7.27936 10.842 6.89782 11 6.5 11C6.10218 11 5.72064 10.842 5.43934 10.5607C5.15804 10.2794 5 9.89782 5 9.5ZM15.5 8C15.1022 8 14.7206 8.15804 14.4393 8.43934C14.158 8.72064 14 9.10218 14 9.5C14 9.89782 14.158 10.2794 14.4393 10.5607C14.7206 10.842 15.1022 11 15.5 11C15.8978 11 16.2794 10.842 16.5607 10.5607C16.842 10.2794 17 9.89782 17 9.5C17 9.10218 16.842 8.72064 16.5607 8.43934C16.2794 8.15804 15.8978 8 15.5 8Z" fill="#FFFFFF"/>
</svg>
