<svg width="66" height="28" viewBox="0 0 66 28" fill="none" xmlns="http://www.w3.org/2000/svg">
<path d="M27.5 10.4995H31.8998V12.6999H27.5V10.4995Z" fill="#97999E"/>
<path d="M65.056 7.21153L57.5839 6.14447C56.2215 5.30748 54.8075 4.55821 53.3497 3.9007C48.5354 1.72003 43.3102 0.59479 38.0246 0.600608H36.7266C30.489 0.605084 24.3512 2.17031 18.8727 5.1535L15.1017 7.21063C10.6876 7.26031 6.35848 8.43435 2.52352 10.6204C0.965006 11.5142 0.00268555 13.1725 0 14.9687V21.5004C0 22.1083 0.49235 22.6006 1.10018 22.6006H4.7937C5.99503 26.0278 9.74719 27.8325 13.1744 26.6312C15.061 25.9701 16.5439 24.4868 17.205 22.6006H46.5938C47.7951 26.0278 51.5473 27.8325 54.9745 26.6312C56.8606 25.9701 58.3439 24.4868 59.005 22.6006H59.3998C59.5399 22.6006 59.6787 22.5742 59.8089 22.5223L63.3717 21.0927C64.9634 20.4625 66.0058 18.9219 66 17.2107V8.30052C66 7.75356 65.5976 7.28941 65.056 7.21153ZM15.3107 21.2807C14.8242 23.6614 12.4999 25.1971 10.1191 24.7105C7.73795 24.224 6.20227 21.8997 6.6888 19.5185C7.17578 17.1378 9.50012 15.6021 11.8809 16.0886C13.9295 16.5071 15.4003 18.3095 15.3998 20.4007C15.3998 20.6961 15.3698 20.9911 15.3107 21.2807ZM35.1999 20.4007H17.5997C17.5997 16.7555 14.6452 13.8005 11 13.8005C7.35482 13.8005 4.39982 16.7555 4.39982 20.4007H2.19991V14.9687C2.20125 13.9612 2.74105 13.0307 3.61564 12.5303C7.20532 10.4807 11.2668 9.40204 15.3998 9.4007H35.1999V20.4007ZM35.1999 7.20079H19.7141L19.9263 7.08486C24.6291 4.52911 29.853 3.08026 35.1999 2.84886V7.20079ZM37.3998 2.80052H38.0224C42.4554 2.79559 46.848 3.63707 50.9654 5.28017L49.0448 7.20079H37.3998V2.80052ZM57.1108 21.2807C56.6243 23.6614 54.3 25.1971 51.9188 24.7105C49.538 24.224 48.0023 21.8997 48.4889 19.5185C48.9754 17.1378 51.3002 15.6021 53.6809 16.0886C55.7296 16.5071 57.2003 18.3095 57.1999 20.4007C57.1999 20.6961 57.1699 20.9911 57.1108 21.2807ZM63.8001 10.5004H60.5V12.7008H63.8001V17.2107C63.8028 18.0213 63.3086 18.7509 62.5549 19.0485L59.3998 20.3156C59.3998 20.2145 59.3868 20.1142 59.3801 20.0131C59.3734 19.9119 59.3712 19.7933 59.3604 19.6832C59.3492 19.5731 59.3273 19.463 59.3098 19.3533C59.2919 19.2432 59.279 19.1331 59.257 19.0333C59.2351 18.933 59.2029 18.822 59.1742 18.7173C59.1456 18.613 59.1236 18.5074 59.0905 18.4049C59.0578 18.3028 59.018 18.2048 58.9809 18.1046C58.9433 18.0047 58.9092 17.9013 58.8708 17.802C58.8323 17.7031 58.7803 17.6131 58.7342 17.5195C58.6881 17.426 58.6429 17.3235 58.5915 17.2291C58.5395 17.1346 58.4813 17.0541 58.4317 16.9663C58.3824 16.8782 58.322 16.7779 58.2593 16.6879C58.1962 16.5975 58.138 16.5263 58.0776 16.4449C58.0172 16.3634 57.9487 16.2676 57.8784 16.183C57.8082 16.0984 57.7424 16.0322 57.6739 15.9628C57.6059 15.8939 57.5298 15.8004 57.4541 15.7234C57.378 15.6464 57.3033 15.5855 57.2276 15.5175C57.1516 15.4494 57.0701 15.3689 56.9864 15.2973C56.9031 15.2261 56.8181 15.171 56.7348 15.1084C56.6511 15.0457 56.5674 14.9786 56.4797 14.9199C56.3915 14.8618 56.2926 14.8103 56.1982 14.7485C56.1033 14.6867 56.0263 14.6384 55.9372 14.5914C55.8482 14.544 55.7372 14.4943 55.636 14.4459C55.5349 14.3976 55.4556 14.3546 55.3621 14.3152C55.2685 14.2754 55.1419 14.2338 55.0322 14.1944C54.9221 14.1546 54.8505 14.1237 54.7569 14.0941C54.6316 14.0556 54.5032 14.0279 54.3751 13.9961C54.2914 13.9764 54.2113 13.95 54.1267 13.9326C53.9916 13.9048 53.8528 13.8896 53.7154 13.8694C53.6339 13.8587 53.5561 13.8408 53.4746 13.8332C53.2544 13.8113 53.0346 13.7992 52.8037 13.7992C49.1598 13.8028 46.2071 16.7555 46.2035 20.3993H37.4003V9.40025H49.5C49.7918 9.40025 50.0716 9.28432 50.2775 9.07798L53.1299 6.22548C54.3273 6.79527 55.4914 7.43219 56.6171 8.13312C56.7469 8.21413 56.892 8.2674 57.0437 8.28933L63.8001 9.25389V10.5004Z" fill="#97999E"/>
</svg>
