<svg width="22" height="24" viewBox="0 0 22 24" fill="none" xmlns="http://www.w3.org/2000/svg">
<path fill-rule="evenodd" clip-rule="evenodd" d="M10.247 23.6578C10.3409 23.7653 10.4566 23.8513 10.5865 23.9103C10.7164 23.9693 10.8574 23.9998 11 23.9998C11.1426 23.9998 11.2836 23.9693 11.4135 23.9103C11.5434 23.8513 11.6591 23.7653 11.753 23.6578L14.953 19.999H19C19.7956 19.999 20.5587 19.683 21.1213 19.1204C21.6839 18.5578 22 17.7948 22 16.9992V2.99985C22 2.20424 21.6839 1.44122 21.1213 0.878637C20.5587 0.316055 19.7956 0 19 0L3 0C2.20435 0 1.44129 0.316055 0.87868 0.878637C0.31607 1.44122 0 2.20424 0 2.99985V16.9992C0 17.7948 0.31607 18.5578 0.87868 19.1204C1.44129 19.683 2.20435 19.999 3 19.999H7.046L10.247 23.6578ZM13.747 18.3411L11 21.481L8.253 18.3411C8.15914 18.2337 8.04339 18.1476 7.91351 18.0886C7.78364 18.0296 7.64264 17.9991 7.5 17.9991H3C2.73478 17.9991 2.48043 17.8938 2.29289 17.7062C2.10536 17.5187 2 17.2644 2 16.9992V2.99985C2 2.73465 2.10536 2.48031 2.29289 2.29278C2.48043 2.10525 2.73478 1.9999 3 1.9999H19C19.2652 1.9999 19.5196 2.10525 19.7071 2.29278C19.8946 2.48031 20 2.73465 20 2.99985V16.9992C20 17.2644 19.8946 17.5187 19.7071 17.7062C19.5196 17.8938 19.2652 17.9991 19 17.9991H14.5C14.3574 17.999 14.2165 18.0294 14.0866 18.0882C13.9567 18.147 13.841 18.2329 13.747 18.3401V18.3411ZM6 6.99966C5.73478 6.99966 5.48043 7.10501 5.29289 7.29254C5.10536 7.48007 5 7.73441 5 7.99961C5 8.26481 5.10536 8.51916 5.29289 8.70668C5.48043 8.89421 5.73478 8.99956 6 8.99956H16C16.2652 8.99956 16.5196 8.89421 16.7071 8.70668C16.8946 8.51916 17 8.26481 17 7.99961C17 7.73441 16.8946 7.48007 16.7071 7.29254C16.5196 7.10501 16.2652 6.99966 16 6.99966H6ZM6 10.9995C5.73478 10.9995 5.48043 11.1048 5.29289 11.2923C5.10536 11.4799 5 11.7342 5 11.9994C5 12.2646 5.10536 12.519 5.29289 12.7065C5.48043 12.894 5.73478 12.9994 6 12.9994H16C16.2652 12.9994 16.5196 12.894 16.7071 12.7065C16.8946 12.519 17 12.2646 17 11.9994C17 11.7342 16.8946 11.4799 16.7071 11.2923C16.5196 11.1048 16.2652 10.9995 16 10.9995H6Z" fill="#FFFFFF"/>
</svg>
