<svg width="64" height="32" viewBox="0 0 64 32" fill="none" xmlns="http://www.w3.org/2000/svg">
<path d="M64 22.3425C64 20.0914 63.3007 17.9995 62.1087 16.2667C62.0461 16.1127 61.9421 15.9856 61.8163 15.8796C59.8258 13.2461 56.6628 11.5314 53.0958 11.5314H51.7184L42.5566 3.00067C40.6665 1.24205 38.1981 0.273438 35.6063 0.273438H5.31419C2.38391 0.273438 0 2.637 0 5.54284V21.2181C0 21.3663 0.0112226 21.5115 0.0224452 21.6561C0.0183106 21.6936 0 21.727 0 21.7657C0 21.9115 0.0324865 22.0485 0.0880086 22.1744C0.548134 24.8431 2.89247 26.8828 5.71347 26.8828H5.7436C6.52091 29.8226 9.21551 31.9999 12.4204 31.9999C15.626 31.9999 18.32 29.8226 19.0979 26.8828H46.8879C47.6658 29.8226 50.3604 31.9999 53.5654 31.9999C56.8016 31.9999 59.5181 29.7799 60.2647 26.7973C62.4336 26.3956 64 24.5444 64 22.3425V22.3425ZM12.4204 29.9532C9.74829 29.9532 7.57524 27.7987 7.57524 25.1488C7.57524 22.4994 9.74888 20.3449 12.4204 20.3449C15.092 20.3449 17.2662 22.4994 17.2662 25.1488C17.2662 27.7987 15.092 29.9532 12.4204 29.9532ZM53.5648 29.9532C50.8926 29.9532 48.7196 27.7987 48.7196 25.1488C48.7196 22.4994 50.8932 20.3449 53.5648 20.3449C56.2363 20.3449 58.4106 22.4994 58.4106 25.1488C58.4106 27.7987 56.2369 29.9532 53.5648 29.9532V29.9532ZM60.4478 24.6112C60.169 21.0846 57.192 18.2976 53.5648 18.2976C49.8613 18.2976 46.8377 21.2035 46.6712 24.8361H19.3146C19.1481 21.204 16.1245 18.2976 12.4204 18.2976C8.72349 18.2976 5.70402 21.1935 5.52742 24.8173C4.16653 24.7482 3.00765 23.9424 2.4418 22.7893H3.34787C3.91786 22.7893 4.37976 22.3314 4.37976 21.7657C4.37976 21.1999 3.91786 20.7426 3.34787 20.7426H2.06436V5.54284C2.06436 3.76548 3.52212 2.32018 5.31419 2.32018H35.6063C37.6712 2.32018 39.6376 3.09202 41.1432 4.49341L50.6026 13.3005C50.794 13.4791 51.0468 13.5781 51.3096 13.5781H53.0958C55.2576 13.5781 57.2387 14.3546 58.7768 15.6372C58.2369 15.6711 57.8063 16.1045 57.8063 16.6485C57.8063 17.2142 58.2688 17.6722 58.8388 17.6722H60.5623C61.4271 19.0261 61.9356 20.6249 61.9356 22.3425C61.9356 23.3509 61.3349 24.2194 60.4478 24.6112Z" fill="#97999E"/>
<path d="M28.9915 13.4992V4.55173C28.9915 4.00096 28.532 3.55566 27.9656 3.55566H5.40137C4.83504 3.55566 4.3761 4.00096 4.3761 4.55173V13.4992C4.3761 14.05 4.83504 14.4958 5.40137 14.4958H27.9656C28.532 14.4958 28.9915 14.05 28.9915 13.4992ZM26.9398 12.5031H6.42723V5.54836H26.9398V12.5031Z" fill="#97999E"/>
<path d="M40.2438 5.46455C38.8785 4.23358 37.0948 3.55566 35.2228 3.55566H32.2148C31.6429 3.55566 31.1795 4.00096 31.1795 4.55173V13.4992C31.1795 14.05 31.6429 14.4958 32.2148 14.4958H47.6477C48.0732 14.4958 48.4548 14.2455 48.6113 13.8652C48.7677 13.4849 48.6658 13.0516 48.3559 12.7723L40.2438 5.46455ZM33.2506 12.5031V5.54836H35.2228C36.5668 5.54836 37.8474 6.03471 38.8275 6.91845L45.0261 12.5031H33.2506Z" fill="#97999E"/>
</svg>
