<svg width="23" height="21" viewBox="0 0 23 21" fill="none" xmlns="http://www.w3.org/2000/svg">
<path fill-rule="evenodd" clip-rule="evenodd" d="M10.8101 0.276177C10.9961 0.0988963 11.2432 0 11.5001 0C11.7571 0 12.0042 0.0988963 12.1901 0.276177L20.1901 7.8948L22.6901 10.2747C22.8824 10.4577 22.9941 10.7095 23.0007 10.9749C23.0073 11.2402 22.9081 11.4973 22.7251 11.6896C22.5421 11.8819 22.2903 11.9936 22.0249 12.0002C21.7595 12.0067 21.5024 11.9076 21.3101 11.7246L20.5001 10.9516V18.4993C20.5001 19.0297 20.2894 19.5384 19.9144 19.9134C19.5393 20.2885 19.0306 20.4992 18.5001 20.4992H4.50014C3.96971 20.4992 3.461 20.2885 3.08592 19.9134C2.71085 19.5384 2.50014 19.0297 2.50014 18.4993V10.9516L1.69014 11.7236C1.49812 11.9066 1.24127 12.0058 0.976097 11.9994C0.71092 11.9931 0.459138 11.8816 0.276138 11.6896C0.093139 11.4976 -0.00608689 11.2408 0.000289351 10.9756C0.00666559 10.7104 0.118122 10.4587 0.310138 10.2757L2.81014 7.8948L10.8101 0.275177V0.276177ZM4.50014 9.04774V18.4993H8.50014V13.4995C8.50014 12.7039 8.81621 11.9409 9.37882 11.3783C9.94143 10.8157 10.7045 10.4997 11.5001 10.4997C12.2958 10.4997 13.0589 10.8157 13.6215 11.3783C14.1841 11.9409 14.5001 12.7039 14.5001 13.4995V18.4993H18.5001V9.04774L11.5001 2.38007L4.50014 9.04674V9.04774ZM12.5001 18.4993V13.4995C12.5001 13.2343 12.3948 12.98 12.2072 12.7924C12.0197 12.6049 11.7654 12.4996 11.5001 12.4996C11.2349 12.4996 10.9806 12.6049 10.793 12.7924C10.6055 12.98 10.5001 13.2343 10.5001 13.4995V18.4993H12.5001Z" fill="#FFFFFF"/>
</svg>
