<svg width="78" height="32" viewBox="0 0 78 32" fill="none" xmlns="http://www.w3.org/2000/svg">
<path d="M51.3004 8.78862L50.8246 5.38994C50.3852 2.31768 47.7134 0 44.6098 0H31.3515C26.9911 0 22.8931 1.69872 19.8108 4.78101L16.1711 8.42076C15.935 8.65554 15.6124 8.78862 15.2822 8.78862H13.4315C9.34607 8.78862 5.33469 9.89975 1.82678 12.0027C0.700579 12.6807 0 13.9187 0 15.2332V26.3659H6.71702C7.75407 29.2875 10.5376 31.3879 13.8107 31.3879C17.0838 31.3879 19.8673 29.2875 20.9044 26.3659H53.1712C54.2082 29.2875 56.9917 31.3879 60.2648 31.3879C63.538 31.3879 66.3214 29.2875 67.3585 26.3659H71.5645C75.026 26.3659 77.8421 23.5497 77.8421 20.0883V8.78862H51.3004ZM13.8107 28.8769C11.041 28.8769 8.78862 26.6245 8.78862 23.8548C8.78862 21.0852 11.041 18.8328 13.8107 18.8328C16.5804 18.8328 18.8328 21.0852 18.8328 23.8548C18.8328 26.6245 16.5804 28.8769 13.8107 28.8769ZM60.2648 28.8769C57.4952 28.8769 55.2428 26.6245 55.2428 23.8548C55.2428 21.0852 57.4952 18.8328 60.2648 18.8328C63.0345 18.8328 65.2869 21.0852 65.2869 23.8548C65.2869 26.6245 63.0345 28.8769 60.2648 28.8769ZM75.331 17.5772H69.0535V20.0883H75.331C75.331 22.1649 73.6411 23.8548 71.5645 23.8548H67.7979C67.7979 19.7003 64.4193 16.3217 60.2648 16.3217C56.1103 16.3217 52.7317 19.7003 52.7317 23.8548H50.4969L50.5132 23.7757C50.6626 23.03 50.7945 22.2842 50.9075 21.5346L48.4253 21.1542C48.3161 21.8661 48.1918 22.5742 48.0499 23.2811L47.9357 23.8548H36.41H33.899H21.3438C21.3438 19.7003 17.9652 16.3217 13.8107 16.3217C9.65618 16.3217 6.27759 19.7003 6.27759 23.8548H2.51103V15.2332C2.51103 14.7938 2.74582 14.3807 3.11996 14.156C6.23615 12.2865 9.80182 11.2997 13.4315 11.2997H15.2822C16.2878 11.2997 17.2345 10.9079 17.9451 10.1961L21.5849 6.55631C24.1951 3.9486 27.6616 2.51103 31.3515 2.51103H44.611C46.473 2.51103 48.0763 3.90089 48.3387 5.74525L48.9664 10.1333V14.0442C48.9664 14.785 48.9476 15.5245 48.9137 16.2627L51.4222 16.3807C51.4574 15.6036 51.4762 14.8252 51.4762 14.0455V11.2997H75.331V17.5772Z" fill="#97999E"/>
<path d="M28.8769 5.02197C25.4154 5.02197 22.5993 7.8381 22.5993 11.2996V12.5551H46.4541V5.02197H28.8769ZM43.9431 10.044H25.325C25.8436 8.58262 27.2397 7.53301 28.8769 7.53301H43.9431V10.044Z" fill="#97999E"/>
</svg>
