<svg width="64" height="34" viewBox="0 0 64 34" fill="none" xmlns="http://www.w3.org/2000/svg">
<path d="M60.2605 12.8572L55.1541 10.5255L50.647 3.33488C49.3443 1.25064 47.0516 -0.0129267 44.5896 9.97531e-05H25.3886C23.1611 9.97531e-05 21.0508 1.02919 19.696 2.80079L13.8732 10.4213L4.16847 13.0787C1.70647 13.7561 0 16.0096 0 18.5628V22.2754C0 25.4148 2.50108 28.007 5.64047 28.007H6.47416C7.4772 31.8759 11.4242 34.1946 15.2931 33.1916C17.8333 32.5272 19.8263 30.5472 20.4776 28.007H42.3621C43.3652 31.8759 47.3122 34.1946 51.181 33.1916C53.7212 32.5272 55.7143 30.5472 56.3656 28.007H57.9288C61.0681 28.007 63.5692 25.4148 63.5692 22.2754V18.0418C63.5823 15.8142 62.2796 13.7821 60.2605 12.8572ZM13.4694 30.7947C10.9162 30.7947 8.84498 28.7235 8.84498 26.1703C8.84498 23.6171 10.9162 21.5459 13.4694 21.5459C16.0226 21.5459 18.0938 23.6171 18.0938 26.1703C18.1068 28.7105 16.0356 30.7817 13.4694 30.7947ZM49.3573 30.7947C46.8041 30.7947 44.7329 28.7235 44.7329 26.1703C44.7329 23.6171 46.8041 21.5459 49.3573 21.5459C51.9105 21.5459 53.9817 23.6171 53.9817 26.1703C53.9948 28.7105 51.9236 30.7817 49.3573 30.7947ZM57.9288 25.4017H56.548C56.1181 21.4287 52.5358 18.5628 48.5627 19.0057C45.1889 19.3705 42.5315 22.0409 42.1667 25.4017H20.66C20.2301 21.4287 16.6478 18.5628 12.6748 19.0057C9.30091 19.3705 6.64351 22.0409 6.27876 25.4017H5.62744C3.92097 25.4017 2.59227 23.9819 2.59227 22.2754V18.5628C2.57924 17.169 3.50412 15.9575 4.84585 15.5798L14.9935 12.8051C15.267 12.727 15.5145 12.5707 15.6839 12.3362L21.7542 4.377C22.627 3.25672 23.9687 2.6054 25.3886 2.6054H44.5896C46.1528 2.59237 47.6248 3.38699 48.4455 4.71569L53.1611 12.245C53.2913 12.4664 53.4998 12.6358 53.7212 12.74L59.1663 15.2281C60.2605 15.7361 60.9639 16.8303 60.9509 18.0418V22.2754H60.9639C60.9639 23.9819 59.6352 25.4017 57.9288 25.4017Z" fill="#97999E"/>
</svg>
