<svg width="80" height="37" viewBox="0 0 80 37" fill="none" xmlns="http://www.w3.org/2000/svg">
<path d="M77.9614 9.50164L68.7264 1.50836C67.9372 0.830946 66.9343 0.462035 65.8995 0.468452H42.4664C42.1996 0.468452 41.9316 0.456076 41.6633 0.463892C41.5249 0.431206 41.381 0.431985 41.243 0.466171C39.0081 0.567884 36.7904 0.911818 34.628 1.49208C32.9749 1.93554 31.3541 2.49423 29.7772 3.16414C24.898 5.26603 20.4103 8.19791 16.5087 11.8327C12.5612 11.8913 8.64905 12.5947 4.92316 13.9156C3.47789 14.4296 2.22834 15.3895 1.3505 16.6602C0.469262 17.9258 -0.00256636 19.4368 1.0499e-05 20.9851V28.3005C0.00100171 28.5404 0.0490259 28.7777 0.1413 28.9987C0.233574 29.2197 0.368263 29.4199 0.537562 29.5879C0.70686 29.7558 0.907401 29.888 1.12756 29.9769C1.34772 30.0658 1.58313 30.1096 1.82013 30.1057H9.9081C10.1245 31.9674 11.0086 33.6839 12.3926 34.9296C13.7766 36.1752 15.5642 36.8633 17.4162 36.8633C19.2683 36.8633 21.0559 36.1752 22.4398 34.9296C23.8238 33.6839 24.7079 31.9674 24.9244 30.1057H55.3556C55.5421 31.9937 56.4146 33.7442 57.8039 35.018C59.1931 36.2919 61.0002 36.9982 62.8748 37C66.9189 37 70.2314 33.6883 70.427 29.7801H70.7422C72.3926 29.78 74.0009 29.2524 75.3376 28.2726C75.3391 28.2715 75.3519 28.244 75.3537 28.243C76.6299 27.3018 77.6685 26.069 78.3852 24.6449C79.1019 23.2208 79.4765 21.6457 79.4784 20.0475V12.8399C79.4787 12.2056 79.3433 11.5787 79.0814 11.0024C78.8196 10.4262 78.4375 9.91416 77.9614 9.50164V9.50164ZM67.2609 3.23938L76.4959 11.2418C76.7454 11.448 76.9463 11.708 77.0837 12.0029L60.4937 11.9514V2.74824H65.8995C66.3968 2.74157 66.8799 2.91585 67.2609 3.23938V3.23938ZM58.2413 11.9451L42.6352 11.9014V2.74824H58.2413V11.9451ZM30.646 5.2666C32.1289 4.63699 33.6531 4.11177 35.2075 3.69468C36.9017 3.23574 38.6341 2.93593 40.3827 2.79905V11.8951L19.9455 11.8376C22.1626 10.011 25.9341 7.26093 30.646 5.2666ZM17.4162 34.6207C16.3662 34.6207 15.3397 34.3055 14.4666 33.7151C13.5934 33.1246 12.9129 32.2853 12.5111 31.3034C12.1092 30.3214 12.0041 29.241 12.209 28.1985C12.4138 27.1561 12.9195 26.1986 13.662 25.4471C14.4045 24.6955 15.3505 24.1837 16.3804 23.9764C17.4103 23.769 18.4779 23.8754 19.448 24.2822C20.4182 24.6889 21.2473 25.3777 21.8307 26.2614C22.4141 27.1451 22.7255 28.1841 22.7255 29.2469C22.7239 30.6716 22.164 32.0375 21.1687 33.045C20.1733 34.0524 18.8238 34.6191 17.4162 34.6207V34.6207ZM17.4162 21.5564C15.6477 21.555 13.9348 22.1818 12.5761 23.3275C11.2173 24.4732 10.2988 26.0652 9.98066 27.826H2.25243V20.9851C2.25036 19.906 2.5789 18.8528 3.19282 17.9706C3.8016 17.0886 4.66848 16.4222 5.67129 16.0653C9.30412 14.778 13.1246 14.1167 16.9736 14.1091L40.3827 14.1742V27.826H24.8518C24.5336 26.0652 23.6151 24.4733 22.2564 23.3276C20.8976 22.1819 19.1847 21.5552 17.4162 21.5565V21.5564ZM62.8748 34.7023C61.8247 34.7023 60.7982 34.3871 59.9251 33.7966C59.052 33.2062 58.3715 32.3669 57.9697 31.385C57.5678 30.403 57.4627 29.3225 57.6675 28.2801C57.8724 27.2377 58.3781 26.2802 59.1206 25.5287C59.8631 24.7771 60.8091 24.2653 61.839 24.058C62.8689 23.8506 63.9364 23.957 64.9066 24.3638C65.8767 24.7705 66.7059 25.4593 67.2893 26.343C67.8727 27.2267 68.1841 28.2657 68.1841 29.3285C68.1825 30.7532 67.6226 32.1191 66.6273 33.1265C65.6319 34.134 64.2824 34.7007 62.8748 34.7023ZM74.0267 26.383L74.0135 26.4289C73.0615 27.1254 71.9168 27.5003 70.7422 27.5003H70.1992C69.8029 25.8388 68.8641 24.3615 67.5347 23.3075C66.2054 22.2534 64.5634 21.6845 62.8748 21.6928C61.1314 21.7025 59.444 22.3164 58.0935 23.4324C56.7431 24.5484 55.8112 26.099 55.4531 27.826H42.6352V14.1812L77.226 14.2789V17.404H74.4381C74.1394 17.404 73.853 17.5241 73.6418 17.7379C73.4306 17.9517 73.3119 18.2416 73.3119 18.5439C73.3119 18.8463 73.4306 19.1362 73.6418 19.35C73.853 19.5637 74.1394 19.6838 74.4381 19.6838H77.226V20.0475C77.2241 21.2841 76.9332 22.5027 76.3771 23.6038C75.8209 24.7049 75.0153 25.6573 74.0261 26.383H74.0267Z" fill="#97999E"/>
</svg>
