<svg width="18" height="18" viewBox="0 0 18 18" fill="none" xmlns="http://www.w3.org/2000/svg">
<path fill-rule="evenodd" clip-rule="evenodd" d="M5.00098 6.00012C5.00098 4.93925 5.4224 3.92183 6.17255 3.17169C6.92269 2.42154 7.94011 2.00012 9.00098 2.00012C10.0618 2.00012 11.0793 2.42154 11.8294 3.17169C12.5795 3.92183 13.001 4.93925 13.001 6.00012C13.001 7.06098 12.5795 8.0784 11.8294 8.82854C11.0793 9.57869 10.0618 10.0001 9.00098 10.0001C7.94011 10.0001 6.92269 9.57869 6.17255 8.82854C5.4224 8.0784 5.00098 7.06098 5.00098 6.00012ZM12.825 10.6231C13.7765 9.83597 14.4619 8.77441 14.7878 7.58328C15.1137 6.39215 15.0641 5.12949 14.6458 3.9676C14.2275 2.80571 13.4608 1.80118 12.4505 1.09111C11.4402 0.381036 10.2354 0 9.00048 0C7.76558 0 6.56076 0.381036 5.55043 1.09111C4.5401 1.80118 3.77348 2.80571 3.35518 3.9676C2.93688 5.12949 2.88728 6.39215 3.21314 7.58328C3.53901 8.77441 4.22447 9.83597 5.17598 10.6231C1.98698 11.7461 0.000976562 14.2471 0.000976562 17.0001C0.000976563 17.2653 0.106333 17.5197 0.29387 17.7072C0.481406 17.8948 0.73576 18.0001 1.00098 18.0001C1.26619 18.0001 1.52055 17.8948 1.70808 17.7072C1.89562 17.5197 2.00098 17.2653 2.00098 17.0001C2.00098 14.7301 4.35598 12.0001 9.00098 12.0001C13.646 12.0001 16.001 14.7301 16.001 17.0001C16.001 17.2653 16.1063 17.5197 16.2939 17.7072C16.4814 17.8948 16.7358 18.0001 17.001 18.0001C17.2662 18.0001 17.5205 17.8948 17.7081 17.7072C17.8956 17.5197 18.001 17.2653 18.001 17.0001C18.001 14.2471 16.017 11.7461 12.825 10.6231Z" fill="#FFFFFF"/>
</svg>
