<svg width="64" height="41" viewBox="0 0 64 41" fill="none" xmlns="http://www.w3.org/2000/svg">
<path d="M61.4972 13.3036L50.3713 2.17555C49.6829 1.48377 48.8642 0.935319 47.9625 0.561902C47.0609 0.188486 46.0941 -0.00248739 45.1182 2.446e-05H3.18369C2.33932 2.446e-05 1.52954 0.335448 0.932482 0.932506C0.335424 1.52956 0 2.33935 0 3.18372V28.6532C0.00168508 30.06 0.561266 31.4087 1.556 32.4034C2.55073 33.3981 3.89939 33.9577 5.30615 33.9594H6.45228C6.70602 35.7262 7.58823 37.3423 8.9371 38.5113C10.286 39.6803 12.0111 40.3238 13.796 40.3238C15.5809 40.3238 17.306 39.6803 18.6549 38.5113C20.0038 37.3423 20.886 35.7262 21.1397 33.9594H42.5341C42.7879 35.7262 43.6701 37.3423 45.0189 38.5113C46.3678 39.6803 48.0929 40.3238 49.8778 40.3238C51.6628 40.3238 53.3879 39.6803 54.7367 38.5113C56.0856 37.3423 56.9678 35.7262 57.2215 33.9594H60.4901C61.3345 33.9594 62.1443 33.624 62.7413 33.0269C63.3384 32.4299 63.6738 31.6201 63.6738 30.7757V18.5556C63.6765 17.5798 63.4854 16.613 63.1118 15.7115C62.7382 14.81 62.1894 13.9915 61.4972 13.3036ZM60.0402 14.8573H40.3268V6.36741H51.5609L59.9967 14.8042C60.0136 14.8212 60.0243 14.8403 60.0402 14.8573ZM38.2043 14.8573H6.36738V6.36741H38.2043V14.8573ZM2.12246 28.6532V21.2246H5.30615V19.1022H2.12246V3.18372C2.12246 2.90226 2.23427 2.63233 2.43329 2.43331C2.63231 2.23429 2.90224 2.12249 3.18369 2.12249H45.1182C45.8153 2.12079 46.5058 2.25721 47.1499 2.52387C47.794 2.79054 48.3788 3.18216 48.8707 3.67613L49.4385 4.24495H6.36738C5.80447 4.24495 5.26461 4.46856 4.86658 4.8666C4.46854 5.26464 4.24492 5.8045 4.24492 6.36741V14.8573C4.24492 15.4202 4.46854 15.96 4.86658 16.3581C5.26461 16.7561 5.80447 16.9797 6.36738 16.9797H38.2043V31.8369H21.1397C20.886 30.0701 20.0038 28.454 18.6549 27.285C17.306 26.1161 15.5809 25.4725 13.796 25.4725C12.0111 25.4725 10.286 26.1161 8.9371 27.285C7.58823 28.454 6.70602 30.0701 6.45228 31.8369H5.30615C4.46178 31.8369 3.652 31.5015 3.05494 30.9045C2.45788 30.3074 2.12246 29.4976 2.12246 28.6532ZM13.796 38.2043C12.7465 38.2043 11.7206 37.8931 10.8481 37.3101C9.97546 36.727 9.29536 35.8983 8.89375 34.9287C8.49214 33.9592 8.38706 32.8923 8.5918 31.863C8.79654 30.8337 9.3019 29.8882 10.044 29.1462C10.7861 28.4041 11.7315 27.8987 12.7608 27.694C13.7901 27.4892 14.857 27.5943 15.8266 27.9959C16.7961 28.3975 17.6249 29.0776 18.2079 29.9502C18.7909 30.8228 19.1021 31.8487 19.1021 32.8982C19.1005 34.3049 18.5409 35.6536 17.5462 36.6483C16.5514 37.6431 15.2028 38.2026 13.796 38.2043ZM49.8778 38.2043C48.8284 38.2043 47.8025 37.8931 46.9299 37.3101C46.0573 36.727 45.3772 35.8983 44.9756 34.9287C44.574 33.9592 44.4689 32.8923 44.6736 31.863C44.8784 30.8337 45.3837 29.8882 46.1258 29.1462C46.8679 28.4041 47.8134 27.8987 48.8427 27.694C49.8719 27.4892 50.9388 27.5943 51.9084 27.9959C52.878 28.3975 53.7067 29.0776 54.2897 29.9502C54.8728 30.8228 55.184 31.8487 55.184 32.8982C55.1823 34.3049 54.6227 35.6536 53.628 36.6483C52.6333 37.6431 51.2846 38.2026 49.8778 38.2043ZM60.4901 31.8369H57.2215C56.9678 30.0701 56.0856 28.454 54.7367 27.285C53.3879 26.1161 51.6628 25.4725 49.8778 25.4725C48.0929 25.4725 46.3678 26.1161 45.0189 27.285C43.6701 28.454 42.7879 30.0701 42.5341 31.8369H40.3268V16.9797H61.2882C61.4549 17.4887 61.5437 18.0201 61.5514 18.5556V19.1022H58.3677C57.5233 19.1022 56.7135 19.4376 56.1165 20.0347C55.5194 20.6317 55.184 21.4415 55.184 22.2859C55.184 23.1302 55.5194 23.94 56.1165 24.5371C56.7135 25.1341 57.5233 25.4696 58.3677 25.4696H61.5514V27.592H58.3677V29.7145H61.5514V30.7757C61.5514 31.0572 61.4396 31.3271 61.2405 31.5261C61.0415 31.7251 60.7716 31.8369 60.4901 31.8369ZM61.5514 21.2246V23.3471H58.3677C58.0862 23.3471 57.8163 23.2353 57.6173 23.0363C57.4182 22.8372 57.3064 22.5673 57.3064 22.2859C57.3064 22.0044 57.4182 21.7345 57.6173 21.5355C57.8163 21.3364 58.0862 21.2246 58.3677 21.2246H61.5514Z" fill="#97999E"/>
</svg>
