<svg width="64" height="33" viewBox="0 0 64 33" fill="none" xmlns="http://www.w3.org/2000/svg">
<path d="M60.8749 13.5205L50.6012 9.02902L44.4531 1.46263C44.0832 1.00485 43.6155 0.635816 43.0842 0.382698C42.5529 0.12958 41.9716 -0.0011848 41.3831 2.69525e-05H8.76616C7.86768 -0.00298084 6.98634 0.24581 6.22207 0.718188C5.45779 1.19057 4.84116 1.86763 4.44208 2.67262L0.510059 10.5357C0.175765 11.207 0.00119974 11.9466 0 12.6966V23.2944C0.00116334 24.3432 0.418291 25.3486 1.15987 26.0902C1.90144 26.8318 2.9069 27.2489 3.95565 27.2501H8.43278C8.73679 28.739 9.54582 30.0773 10.723 31.0384C11.9002 31.9995 13.3732 32.5244 14.8929 32.5244C16.4126 32.5244 17.8856 31.9995 19.0628 31.0384C20.24 30.0773 21.049 28.739 21.353 27.2501H46.8361C47.14 28.7404 47.9498 30.0799 49.1284 31.0415C50.3069 32.003 51.7817 32.5275 53.3027 32.5259C54.8238 32.5244 56.2975 31.9969 57.4741 31.033C58.6507 30.069 59.4578 28.7279 59.7586 27.2369C60.7505 27.158 61.6765 26.7087 62.3522 25.9781C63.0278 25.2476 63.4037 24.2895 63.405 23.2944V17.2104C63.4025 16.4124 63.1598 15.6337 62.7085 14.9756C62.2572 14.3175 61.6183 13.8105 60.8749 13.5205ZM42.4057 3.12477L47.0095 8.79036H37.034V2.63713H41.3831C41.5791 2.63673 41.7728 2.68033 41.9498 2.76473C42.1268 2.84913 42.2826 2.97216 42.4057 3.12477ZM29.1227 2.63713V8.79036H17.9239L20.8806 2.63713H29.1227ZM6.80075 3.85206C6.98212 3.48615 7.26239 3.17838 7.60978 2.96364C7.95716 2.7489 8.35776 2.63579 8.76616 2.63713H17.9549L14.9981 8.79036H4.33122L6.80075 3.85206ZM14.8929 29.8872C14.1105 29.8872 13.3458 29.6552 12.6953 29.2205C12.0448 28.7859 11.5377 28.1681 11.2384 27.4453C10.939 26.7225 10.8606 25.9271 11.0133 25.1598C11.1659 24.3925 11.5426 23.6876 12.0958 23.1344C12.649 22.5812 13.3539 22.2045 14.1212 22.0519C14.8885 21.8992 15.6839 21.9776 16.4067 22.277C17.1295 22.5764 17.7472 23.0834 18.1819 23.7339C18.6166 24.3844 18.8485 25.1492 18.8485 25.9315C18.8474 26.9803 18.4303 27.9857 17.6887 28.7273C16.9471 29.4689 15.9416 29.886 14.8929 29.8872ZM53.2962 29.8872C52.5138 29.8872 51.749 29.6552 51.0985 29.2205C50.448 28.7859 49.941 28.1681 49.6416 27.4453C49.3422 26.7225 49.2639 25.9271 49.4165 25.1598C49.5691 24.3925 49.9459 23.6876 50.4991 23.1344C51.0523 22.5812 51.7571 22.2045 52.5244 22.0519C53.2918 21.8992 54.0871 21.9776 54.8099 22.277C55.5327 22.5764 56.1505 23.0834 56.5852 23.7339C57.0198 24.3844 57.2518 25.1492 57.2518 25.9315C57.2506 26.9803 56.8335 27.9857 56.0919 28.7273C55.3504 29.4689 54.3449 29.886 53.2962 29.8872ZM60.7679 23.2944C60.7674 23.5919 60.6665 23.8804 60.4814 24.1133C60.2964 24.3462 60.0381 24.5097 59.7485 24.5775C59.4373 23.093 58.6238 21.7612 57.4451 20.8067C56.2664 19.8521 54.7946 19.3332 53.2779 19.3374C51.7611 19.3415 50.2922 19.8685 49.1188 20.8296C47.9453 21.7906 47.1392 23.1268 46.8361 24.613H21.353C21.049 23.124 20.24 21.7857 19.0628 20.8246C17.8856 19.8635 16.4126 19.3386 14.8929 19.3386C13.3732 19.3386 11.9002 19.8635 10.723 20.8246C9.54582 21.7857 8.73679 23.124 8.43278 24.613H3.95565C3.60606 24.6126 3.2709 24.4735 3.02371 24.2263C2.77652 23.9792 2.63748 23.644 2.6371 23.2944V12.6966C2.63776 12.3555 2.71722 12.0192 2.86927 11.7139L3.01212 11.4275H30.4413C30.791 11.4275 31.1264 11.2885 31.3737 11.0413C31.6209 10.794 31.7598 10.4586 31.7598 10.1089V2.63713H34.3969V10.1089C34.3969 10.4586 34.5359 10.794 34.7831 11.0413C35.0304 11.2885 35.3658 11.4275 35.7155 11.4275H49.5043L59.8475 15.9495C59.869 15.959 59.8908 15.9678 59.9127 15.976C60.1635 16.071 60.3795 16.2399 60.5322 16.4603C60.6849 16.6807 60.7671 16.9423 60.7679 17.2104V23.2944Z" fill="#97999E"/>
</svg>
